<?xml version="1.0" encoding="utf-8"?>
<svg viewBox="0 0 322 4" xmlns="http://www.w3.org/2000/svg" xmlns:xlink="http://www.w3.org/1999/xlink" xmlns:bx="https://boxy-svg.com">
  <defs>
    <linearGradient id="gradient-1" bx:pinned="true">
      <stop offset="0.799" style="stop-color: rgba(51, 107, 235, 0);"/>
      <stop offset="0.899" style="stop-color: rgba(51, 107, 235, 0.404);"/>
      <stop offset="1" style="stop-color: rgb(51, 107, 235);"/>
    </linearGradient>
    <linearGradient id="gradient-1-0" gradientUnits="userSpaceOnUse" x1="161" y1="-5.99" x2="161" y2="3.989" gradientTransform="matrix(1.038711, 0, 0, 2.384096, -6.232266, -5.521158)" xlink:href="#gradient-1"/>
  </defs>
  <path d="M 23.6 -3.524 L 299.575 -3.524 C 306.79 -3.521 313.367 -2.587 318.111 -1.078 C 320.495 -0.32 322.476 0.608 323.832 1.628 C 325.214 2.667 326.075 3.966 326.075 5.247 C 326.075 6.528 325.214 7.827 323.832 8.866 C 322.476 9.886 320.495 10.814 318.111 11.572 C 313.367 13.081 306.79 14.016 299.575 14.018 L 23.6 14.018 C 16.385 14.016 9.808 13.081 5.064 11.572 C 2.68 10.814 0.699 9.886 -0.657 8.866 C -2.039 7.827 -2.9 6.528 -2.9 5.247 C -2.9 3.966 -2.039 2.667 -0.657 1.628 C 0.699 0.608 2.68 -0.32 5.064 -1.078 C 9.808 -2.587 16.385 -3.521 23.6 -3.524 Z M 5.367 -0.125 C 3.045 0.614 1.218 1.469 -0.056 2.427 C -1.306 3.367 -1.9 4.244 -1.9 5.247 C -1.9 6.25 -1.306 7.127 -0.056 8.067 C 1.218 9.025 3.045 9.88 5.367 10.619 C 10.032 12.103 16.456 13.02 23.6 13.018 L 299.575 13.018 C 306.719 13.02 313.143 12.103 317.808 10.619 C 320.13 9.88 321.957 9.025 323.231 8.067 C 324.481 7.127 325.075 6.25 325.075 5.247 C 325.075 4.244 324.481 3.367 323.231 2.427 C 321.957 1.469 320.13 0.614 317.808 -0.125 C 313.143 -1.609 306.719 -2.527 299.575 -2.524 L 23.6 -2.524 C 16.456 -2.527 10.032 -1.609 5.367 -0.125 Z" style="fill: none;"/>
  <rect y="-19.802" width="322" height="23.791" rx="46.004" ry="4.687" style="stroke: rgb(0, 0, 0); stroke-width: 0; fill: url('#gradient-1-0');"/>
</svg>