<?xml version="1.0" encoding="UTF-8" standalone="no"?>
<svg
   version="1.1"
   width="256"
   height="256"
   viewBox="0 0 256 256"
   xml:space="preserve"
   id="svg2"
   sodipodi:docname="ChannelTemplates.svg"
   inkscape:export-filename="v-dc-transfter.png"
   inkscape:export-xdpi="111.85285"
   inkscape:export-ydpi="111.85285"
   inkscape:version="1.3.2 (091e20e, 2023-11-25)"
   xmlns:inkscape="http://www.inkscape.org/namespaces/inkscape"
   xmlns:sodipodi="http://sodipodi.sourceforge.net/DTD/sodipodi-0.dtd"
   xmlns:xlink="http://www.w3.org/1999/xlink"
   xmlns="http://www.w3.org/2000/svg"
   xmlns:svg="http://www.w3.org/2000/svg"
   xmlns:bx="https://boxy-svg.com"><sodipodi:namedview
   id="namedview2"
   pagecolor="#ffffff"
   bordercolor="#000000"
   borderopacity="0.25"
   inkscape:showpageshadow="2"
   inkscape:pageopacity="0.0"
   inkscape:pagecheckerboard="0"
   inkscape:deskcolor="#d1d1d1"
   inkscape:zoom="1.1253202"
   inkscape:cx="355.01006"
   inkscape:cy="151.06811"
   inkscape:window-width="2512"
   inkscape:window-height="1468"
   inkscape:window-x="2298"
   inkscape:window-y="662"
   inkscape:window-maximized="0"
   inkscape:current-layer="g2" />

<defs
   id="defs1"><inkscape:path-effect
   effect="fillet_chamfer"
   id="path-effect1"
   is_visible="true"
   lpeversion="1"
   nodesatellites_param="F,0,0,1,0,0,0,1 @ F,0,0,1,0,0,0,1 @ F,0,0,1,0,0,0,1 @ F,0,0,1,0,0,0,1 @ F,0,0,1,0,0,0,1 @ F,0,0,1,0,0,0,1 @ F,0,0,1,0,0,0,1 @ F,0,0,1,0,0,0,1 @ F,0,0,1,0,0,0,1 @ F,0,0,1,0,0,0,1 @ F,0,0,1,0,0,0,1 @ F,0,0,1,0,0,0,1 @ F,0,0,1,0,0,0,1 @ F,0,0,1,0,0,0,1 @ F,0,0,1,0,0,0,1 @ F,0,0,1,0,0,0,1 @ F,0,0,1,0,0,0,1 @ F,0,0,1,0,0,0,1 @ F,0,0,1,0,0,0,1 @ F,0,0,1,0,0,0,1"
   radius="0"
   unit="px"
   method="auto"
   mode="F"
   chamfer_steps="1"
   flexible="false"
   use_knot_distance="true"
   apply_no_radius="true"
   apply_with_radius="true"
   only_selected="false"
   hide_knots="false" /><linearGradient
   id="linearGradient18"
   bx:pinned="true"><title
     id="title14">vertix</title><stop
     offset="0"
     style="stop-color:#ffffff;stop-opacity:0;"
     id="stop15" /><stop
     offset="0.246"
     style="stop-color: rgb(41, 189, 251);"
     id="stop16" /><stop
     offset="0.614"
     style="stop-color: rgb(2, 143, 247);"
     id="stop17" /><stop
     offset="1"
     style="stop-color: rgb(33, 76, 158);"
     id="stop18" /></linearGradient><linearGradient
   id="linearGradient14"
   bx:pinned="true"><title
     id="title11">vertix</title><stop
     offset="0"
     style="stop-color:#ffffff;stop-opacity:1;"
     id="stop11" /><stop
     offset="0.246"
     style="stop-color: rgb(41, 189, 251);"
     id="stop12" /><stop
     offset="0.614"
     style="stop-color: rgb(2, 143, 247);"
     id="stop13" /><stop
     offset="1"
     style="stop-color: rgb(33, 76, 158);"
     id="stop14" /></linearGradient>
<radialGradient
   gradientUnits="userSpaceOnUse"
   cx="13.947"
   cy="59.074"
   r="21.194"
   id="gradient-1-3"
   gradientTransform="matrix(9.450373, -10.58197, 1.246667, 1.11004, -190.889427, 144.709779)"
   xlink:href="#gradient-1" /><linearGradient
   id="gradient-1"
   bx:pinned="true"><title
     id="title1">vertix</title><stop
     offset="0"
     style="stop-color: rgba(79, 231, 255, 0.98);"
     id="stop1" /><stop
     offset="0.246"
     style="stop-color: rgb(41, 189, 251);"
     id="stop2" /><stop
     offset="0.614"
     style="stop-color: rgb(2, 143, 247);"
     id="stop3" /><stop
     offset="1"
     style="stop-color: rgb(33, 76, 158);"
     id="stop4-1" /></linearGradient><linearGradient
   id="gradient-1-2"
   gradientUnits="userSpaceOnUse"
   x1="90.872"
   y1="37.711"
   x2="90.872"
   y2="96.822"
   gradientTransform="matrix(1, 0, 0, 0.913635, 0, 8.361995)"
   xlink:href="#gradient-1" /><radialGradient
   gradientUnits="userSpaceOnUse"
   cx="13.947"
   cy="59.074"
   r="21.194"
   id="gradient-1-1"
   gradientTransform="matrix(-1.419606, -5.525405, 1.61795, -0.414451, -61.219033, 164.243639)"
   xlink:href="#gradient-1" /><radialGradient
   gradientUnits="userSpaceOnUse"
   cx="13.947"
   cy="59.074"
   r="21.194"
   id="gradient-1-4"
   gradientTransform="matrix(6.37945, -5.028625, 0.935273, 1.211067, -129.663996, 61.289202)"
   xlink:href="#gradient-1" /><radialGradient
   gradientUnits="userSpaceOnUse"
   cx="13.947"
   cy="59.074"
   r="21.194"
   id="gradient-1-5"
   gradientTransform="matrix(9.450373, -10.58197, 1.246667, 1.11004, -190.889427, 144.709779)"
   xlink:href="#gradient-1" /><radialGradient
   gradientUnits="userSpaceOnUse"
   cx="13.947"
   cy="59.074"
   r="21.194"
   id="gradient-1-6"
   gradientTransform="matrix(9.450373, -10.58197, 1.246667, 1.11004, -190.889427, 144.709779)"
   xlink:href="#gradient-1" /><radialGradient
   gradientUnits="userSpaceOnUse"
   cx="13.947"
   cy="59.074"
   r="21.194"
   id="gradient-1-7"
   gradientTransform="matrix(9.450373, -10.58197, 1.246667, 1.11004, -190.889427, 144.709779)"
   xlink:href="#gradient-1" /><linearGradient
   inkscape:collect="always"
   xlink:href="#linearGradient18"
   id="linearGradient19"
   gradientUnits="userSpaceOnUse"
   gradientTransform="matrix(-1.1204414,0,0,-1.586,345.89356,95.468133)"
   x1="133.69296"
   y1="54.723438"
   x2="19.7936"
   y2="55.396835" /><linearGradient
   inkscape:collect="always"
   xlink:href="#linearGradient18"
   id="linearGradient23"
   gradientUnits="userSpaceOnUse"
   gradientTransform="matrix(0,1.6489459,2.0594232,0,-68.173292,-61.028416)"
   x1="133.69296"
   y1="54.723438"
   x2="19.7936"
   y2="55.396835" /></defs>
<g
   style="stroke: none; stroke-width: 0; stroke-dasharray: none; stroke-linecap: butt; stroke-linejoin: miter; stroke-miterlimit: 10; fill: none; fill-rule: nonzero; opacity: 1;"
   transform="translate(1.4065934065934016 1.4065934065934016) scale(2.81 2.81)"
   id="g2">
	

<path
   fill-rule="evenodd"
   clip-rule="evenodd"
   d="m 150.22726,-14.168982 c -1.14715,1.630488 -1.14715,3.770502 -1.14715,8.0556277 V 27.51545 h -8.42415 c -6.2143,0 -9.32497,0 -10.79585,0.896772 a 5.2782864,3.8214553 0 0 0 -1.87203,3.159067 c 0.11964,1.396107 2.26614,3.021497 6.55211,6.277377 l 29.54433,22.424303 c 2.12539,1.620296 3.18808,2.42535 4.43376,2.72597 a 5.2712487,3.81636 0 0 0 3.34995,0 c 1.24568,-0.30062 2.30837,-1.105674 4.43376,-2.72597 l 29.54433,-22.419205 c 4.293,-3.260978 6.43247,-4.891462 6.54507,-6.282475 A 5.2782864,3.8214553 0 0 0 210.5264,28.412222 C 209.05551,27.51545 205.95188,27.51545 199.73054,27.51545 H 191.3064 V -6.1133543 c 0,-4.2800297 0,-6.4200447 -1.15419,-8.0556277 a 10.556573,7.6429105 0 0 0 -4.6097,-3.342499 c -2.25207,-0.83053 -5.20791,-0.83053 -11.12663,-0.83053 h -8.44525 c -5.91168,0 -8.86753,0 -11.12663,0.83053 a 10.556573,7.6429105 0 0 0 -4.61674,3.342499 z m -29.29801,92.637165 a 7.0377152,5.0952737 0 0 0 7.03771,5.09528 h 84.45258 a 7.0377152,5.0952737 0 1 0 0,-10.190546 h -84.45258 a 7.0377152,5.0952737 0 0 0 -7.03771,5.095266 z"
   fill="#000000"
   id="path1"
   style="font-variation-settings:normal;opacity:1;vector-effect:none;fill:url(#linearGradient19);fill-opacity:1;stroke:#05d7ff;stroke-width:3.81594;stroke-linecap:butt;stroke-linejoin:miter;stroke-miterlimit:10;stroke-dasharray:none;stroke-dashoffset:0;stroke-opacity:0.855769;-inkscape-stroke:none;stop-color:#000000;stop-opacity:1" /><path
   d="m 87.175222,52.964859 c 0,-1.027302 -0.249198,-2.064509 -0.762009,-3.057158 -1.544576,-2.989527 -5.154773,-4.920459 -9.193297,-4.920459 H 70.034575 V -3.6797278 c 0,-2.7323227 -2.765788,-4.9468506 -6.178262,-4.9468506 -3.412465,0 -6.178273,2.2145279 -6.178273,4.9468506 V 46.91651 c 0,4.392781 4.464837,7.96606 9.951129,7.96606 h 3.783165 L 44.178518,76.688238 16.946774,54.88257 h 3.783165 c 5.486292,0 7.267403,-7.503418 7.28479,-11.896177 l 0.333304,-84.115289 c 0.01077,-2.732299 -2.765807,-4.946848 -6.178282,-4.946848 -3.412455,0 -6.167176,2.214549 -6.178262,4.946848 l -0.333284,82.187685 -4.519003,3.930117 c -3.0257527,2.631455 -7.6487025,1.930899 -9.1953217,4.920437 -1.54456568,2.991202 -0.6981517,6.396258 2.1603356,8.683332 l 33.0413691,26.45571 c 3.879964,3.106611 10.190028,3.106611 14.069981,0 L 84.256984,58.589403 c 1.909105,-1.525274 2.918238,-3.555142 2.918238,-5.624544 z"
   style="fill:url(#linearGradient23);fill-rule:nonzero;stroke:#05d7ff;stroke-width:5.27509;stroke-linecap:butt;stroke-linejoin:miter;stroke-miterlimit:10;stroke-dasharray:none;stroke-opacity:0.855769"
   stroke-linecap="round"
   id="path1-3-4"
   sodipodi:nodetypes="scscssssscccssssscsccsccs" /></g>
</svg>
