<svg enable-background="new 0 0 45 45" viewBox="0 0 45 45" xmlns="http://www.w3.org/2000/svg" xmlns:xlink="http://www.w3.org/1999/xlink"><clipPath id="a"><path d="m0 36h36v-36h-36z"/></clipPath><g clip-path="url(#a)" transform="matrix(1.25 0 0 -1.25 0 45)"><path d="m0 0c0-2.209-1.791-4-4-4h-28c-2.209 0-4 1.791-4 4v28c0 2.209 1.791 4 4 4h28c2.209 0 4-1.791 4-4z" fill="#269" transform="translate(36 4)"/><g fill="#f5f8fa"><path d="m0 0h-1v-13h1c1.105 0 2 .896 2 2v9c0 1.105-.895 2-2 2" transform="translate(26 19)"/><path d="m0 0c-1.104 0-2-.895-2-2v-9c0-1.104.896-2 2-2h1v13z" transform="translate(10 19)"/><path d="m0 0c0 .553.448 1 1 1h2c.553 0 1-.447 1-1v-1h-4zm6-1v2c0 1.105-.895 2-2 2h-4c-1.104 0-2-.895-2-2v-2h-1v-13h10v13z" transform="translate(16 20)"/><path d="m0 0c0-.553-.447-1-1-1h-26c-.552 0-1 .447-1 1v18c0 .553.448 1 1 1h26c.553 0 1-.447 1-1zm0 21h-28c-1.104 0-2-.895-2-2v-20c0-1.104.896-2 2-2h28c1.105 0 2 .896 2 2v20c0 1.105-.895 2-2 2" transform="translate(32 5)"/><path d="m0 0c-.829 0-1.5.671-1.5 1.5s.671 1.5 1.5 1.5 1.5-.671 1.5-1.5-.671-1.5-1.5-1.5m10.5 3h-6.35c-.563 1.179-1.756 2-3.15 2-1.933 0-3.5-1.567-3.5-3.5s1.567-3.5 3.5-3.5c1.762 0 3.205 1.306 3.45 3h1.719c.247-.926.747-2 1.331-2s1.084 1.074 1.331 2h.669c0-1.104.448-2 1-2s1 1 1 3c0 1.105-.448 1-1 1" transform="translate(13.5 29)"/></g></g></svg>