<?xml version="1.0" encoding="utf-8"?>
<svg id="emoji" viewBox="0 0 72 72" xmlns="http://www.w3.org/2000/svg" xmlns:xlink="http://www.w3.org/1999/xlink" xmlns:bx="https://boxy-svg.com">
  <defs>
    <linearGradient id="vertix" bx:pinned="true">
      <title>vertix</title>
      <stop offset="0" style="stop-color: rgba(79, 231, 255, 0.98);"/>
      <stop offset="0.295" style="stop-color: rgb(41, 189, 251);"/>
      <stop offset="0.614" style="stop-color: rgb(2, 143, 247);"/>
      <stop offset="1" style="stop-color: rgb(33, 76, 158);"/>
    </linearGradient>
    <linearGradient id="vertix-1" gradientUnits="userSpaceOnUse" x1="66.57" y1="21.261" x2="66.57" y2="147.361" xlink:href="#vertix"/>
    <linearGradient id="vertix-2" gradientUnits="userSpaceOnUse" x1="28.416" y1="1.231" x2="28.416" y2="64.332" gradientTransform="matrix(1.0139, -0.138605, 0.126667, 0.931883, -7.304065, 5.374034)" xlink:href="#vertix"/>
  </defs>
  <g style="" transform="matrix(1.095115, 0, 0, 1.073963, -0.041653, 0.238982)">
    <title>Key</title>
    <path stroke-linecap="round" stroke-linejoin="round" stroke-opacity="1" d="M 26.817 11.644 C 29.08 7.668 34.341 5.998 38.565 8.023 C 42.793 10.077 44.45 14.944 42.19 18.947 C 39.994 22.97 36.859 20.767 32.545 18.754 C 28.317 16.701 24.56 15.676 26.817 11.644 Z M 9.99 54.495 L 9.176 54.942 L 9.176 54.047 C 9.351 54.102 23.417 28.564 23.283 28.523 L 24.439 29.261 L 9.99 54.495 Z M 31.851 36.706 C 32.468 35.698 33.147 34.71 33.941 33.678 C 35.859 31.373 38.188 29.43 40.855 27.974 C 43.628 26.421 46.713 25.382 49.909 24.945 L 50.857 24.815 C 51.895 21.147 51.713 16.918 50.423 12.98 C 47.419 3.957 37.072 -0.953 27.326 2.086 C 17.63 5.064 10.225 13.353 13.196 22.351 C 13.878 24.273 15.337 27.236 16.892 29.347 L 2.096 55.804 C 1.564 56.773 1.401 58.447 1.723 59.494 L 3.082 63.507 C 2.73 62.464 2.585 62.063 2.585 62.063 C 2.644 62.055 3.626 64.832 4.069 64.771 L 10.033 64.067 C 11.161 63.718 12.492 62.64 12.956 61.626 L 18.694 50.373 L 18.797 50.247 L 25.077 49.864 L 31.785 36.66 L 31.851 36.706 Z" style="stroke-dasharray: 1729, 1729; stroke-dashoffset: 0; fill: url('#vertix-2'); transform-origin: 26.196px 32.381px; stroke-width: 3.50754px; stroke: rgb(255, 255, 255);"/>
  </g>
  <g transform="matrix(0.276153, 0, 0, 0.291465, 34.542294, 27.450945)">
    <title>Kog</title>
    <path stroke-linecap="round" stroke-linejoin="round" stroke-opacity="1" d="M 87.62 93.161 C 82.72 104.661 69.42 110.061 57.82 105.361 C 46.12 100.461 40.82 87.161 45.72 75.661 C 50.42 64.061 63.92 58.661 75.42 63.561 C 86.92 68.361 92.52 81.461 87.62 93.161 Z M 113.42 77.461 L 130.12 67.061 L 123.92 52.061 L 104.82 56.561 C 102.12 52.661 98.72 49.461 94.92 46.661 L 99.32 27.661 L 84.12 21.361 L 73.82 37.761 C 69.12 37.061 64.42 37.061 59.82 37.761 L 49.52 21.261 L 34.42 27.361 L 38.62 46.461 C 34.72 49.161 31.32 52.461 28.52 56.261 L 9.62 51.861 L 3.22 66.861 L 19.62 77.361 C 18.92 82.061 18.92 86.761 19.62 91.361 L 3.02 101.461 L 9.22 116.461 L 28.32 112.261 C 31.02 115.961 34.42 119.361 38.22 122.161 L 33.72 141.061 L 48.82 147.261 L 59.42 130.861 C 64.12 131.561 68.82 131.561 73.42 130.861 L 83.82 147.361 L 99.02 141.161 L 94.62 122.061 C 98.32 119.361 101.52 116.161 104.42 112.261 L 123.62 116.661 L 130.02 101.661 L 113.42 91.461 C 114.12 86.761 114.12 82.161 113.42 77.461 Z" style="stroke-dasharray: 1729, 1729; stroke-dashoffset: 0; fill: url('#vertix-1'); stroke-width: 13.49px; stroke: rgb(255, 255, 255);"/>
  </g>
</svg>