<?xml version="1.0" encoding="UTF-8" standalone="no"?>
<svg
   id="emoji"
   viewBox="0 0 72 72"
   version="1.1"
   sodipodi:docname="channel-emoji-privacy-red.svg"
   inkscape:export-filename="channel-emoji-privacy-red.png"
   inkscape:export-xdpi="96"
   inkscape:export-ydpi="96"
   inkscape:version="1.3.2 (091e20e, 2023-11-25)"
   xmlns:inkscape="http://www.inkscape.org/namespaces/inkscape"
   xmlns:sodipodi="http://sodipodi.sourceforge.net/DTD/sodipodi-0.dtd"
   xmlns:xlink="http://www.w3.org/1999/xlink"
   xmlns="http://www.w3.org/2000/svg"
   xmlns:svg="http://www.w3.org/2000/svg"
   xmlns:bx="https://boxy-svg.com">
  <sodipodi:namedview
     id="namedview10"
     pagecolor="#ffffff"
     bordercolor="#000000"
     borderopacity="0.25"
     inkscape:showpageshadow="2"
     inkscape:pageopacity="0.0"
     inkscape:pagecheckerboard="0"
     inkscape:deskcolor="#d1d1d1"
     inkscape:zoom="2.3226494"
     inkscape:cx="41.977925"
     inkscape:cy="-60.921809"
     inkscape:window-width="1392"
     inkscape:window-height="1212"
     inkscape:window-x="0"
     inkscape:window-y="25"
     inkscape:window-maximized="0"
     inkscape:current-layer="emoji" />
  <defs
     id="defs4">
    <linearGradient
       id="gradient-1"
       bx:pinned="true">
      <title
         id="title1">vertix</title>
      <stop
         offset="0"
         style="stop-color: rgba(79, 231, 255, 0.98);"
         id="stop1" />
      <stop
         offset="0.295"
         style="stop-color: rgb(41, 189, 251);"
         id="stop2" />
      <stop
         offset="0.614"
         style="stop-color: rgb(2, 143, 247);"
         id="stop3" />
      <stop
         offset="1"
         style="stop-color: rgb(33, 76, 158);"
         id="stop4" />
    </linearGradient>
    <radialGradient
       gradientUnits="userSpaceOnUse"
       cx="13.947"
       cy="59.074"
       r="21.194"
       id="gradient-1-3"
       gradientTransform="matrix(9.450373, -10.58197, 1.246667, 1.11004, -190.889427, 144.709779)"
       xlink:href="#gradient-1" />
    <linearGradient
       id="gradient-1-0"
       gradientUnits="userSpaceOnUse"
       x1="47.334831"
       y1="-13.945678"
       x2="50.441"
       y2="54.806"
       gradientTransform="matrix(0.672715,0.739902,-0.833751,0.758042,62.20315,-24.060664)"
       xlink:href="#gradient-1" />
    <linearGradient
       id="gradient-1-1"
       gradientUnits="userSpaceOnUse"
       x1="27.672"
       y1="8.795"
       x2="27.672"
       y2="55.132"
       gradientTransform="matrix(9.44e-4,-1,1.422324,0.001342,-50.769699,82.729982)"
       xlink:href="#gradient-1" />
    <linearGradient
       id="linearGradient10"
       bx:pinned="true">
      <title
         id="title7-4">vertix</title>
      <stop
         offset="0"
         style="stop-color: rgba(79, 231, 255, 0.98);"
         id="stop7" />
      <stop
         offset="0.0001"
         style="stop-color: rgb(41, 189, 251);"
         id="stop8" />
      <stop
         offset="1"
         style="stop-color: rgb(2, 143, 247);"
         id="stop9" />
      <stop
         offset="1"
         style="stop-color: rgb(33, 76, 158);"
         id="stop10" />
    </linearGradient>
    <linearGradient
       id="linearGradient18">
      <title
         id="title14">vertix</title>
      <stop
         offset="0"
         style="stop-color:#ffffff;stop-opacity:1;"
         id="stop21" />
      <stop
         offset="0.52138245"
         style="stop-color: rgb(41, 189, 251);"
         id="stop22" />
      <stop
         offset="0.72205383"
         style="stop-color: rgb(2, 143, 247);"
         id="stop23" />
      <stop
         offset="1"
         style="stop-color: rgb(33, 76, 158);"
         id="stop24" />
    </linearGradient>
  </defs>
  <g
     id="line"
     transform="matrix(1, 0, 0, 1, -1.876603, -8.393773)">
    <g
       style="transform-origin: 90.872px 59.0665px;"
       transform="matrix(-0.993524, -0.987124, 0.77034, -0.799642, 9.273389, 15.10912)"
       id="g7">
      <title
         id="title7">Pencil New</title>
    </g>
  </g>
  <g
     transform="matrix(1.2798052,0,0.00326596,1.4104127,-106.58062,36.901505)"
     id="g10"
     style="stroke:#8dd9ff;stroke-opacity:0.986538">
    <title
       id="title8">Shild</title>
    <g
       id="color"
       transform="translate(72.688492,-32.754955)"
       style="stroke:#8dd9ff;stroke-opacity:0.986538">
      <path
         d="m 37.099,11.97 4.714,4.634 -4.714,4.633 4.714,4.634 -4.714,4.634 4.714,4.634 -4.714,4.633 4.714,4.634 -4.714,4.634 1.571,6.092 c 0,0 -23.567,-12.742 -25.139,-37.069 0,0 0,-9.268 25.139,-9.268 z"
         style="fill:url(#gradient-1-1);stroke:#8dd9ff;stroke-width:4px;stroke-opacity:0.986538"
         stroke="none"
         id="path8" />
      <path
         d="m 38.67,8.795 -1.571,3.175 4.714,4.634 -4.714,4.633 4.714,4.634 -4.714,4.634 4.714,4.634 -4.714,4.633 4.714,4.634 -4.714,4.634 1.573,5.766 c 0,0 21.752,-10.378 25.111,-37.028 0,0 -1.309,-8.074 -25.113,-8.983 z"
         style="fill:url(#gradient-1-0);stroke:#8dd9ff;stroke-width:4px;stroke-opacity:0.986538"
         stroke="none"
         id="path9" />
    </g>
    <g
       id="g-2"
       transform="matrix(1.598683,0,0,1.173107,53.995716,-42.04496)"
       style="stroke:#8dd9ff;stroke-opacity:0.986538">
      <path
         fill="none"
         stroke-linecap="round"
         stroke-linejoin="round"
         stroke-miterlimit="10"
         d="M 35.9417,54.854 C 34.9637,54.3582 22.3994,47.536 20.0411,23.1396 L 20.0201,22.92 c 0,-4.4133 7.1553,-7.991 15.9819,-7.991 8.8266,0 16.3938,3.5969 15.9819,7.991 C 49.5866,48.4911 36.002,54.8838 36.002,54.8838 Z"
         style="stroke:#8dd9ff;stroke-width:2.93084px;stroke-opacity:0.986538"
         stroke="#000000"
         id="path10" />
    </g>
  </g>
  <g
     id="XMLID_486_"
     transform="matrix(0.13427318,-0.00180898,0,0.13224054,13.954482,12.283882)">
    <path
       id="XMLID_487_"
       d="m 166.3,338.354 c 69.247,0 125.584,-54.17 125.584,-120.753 0,-31.261 -12.42,-59.785 -32.761,-81.25 V 81.098 c 0,-49.214 -41.64,-89.252 -92.823,-89.252 -51.182,0 -92.821,40.038 -92.821,89.252 v 55.251 c -20.343,21.467 -32.762,49.991 -32.762,81.252 0,66.583 56.337,120.753 125.583,120.753 z m 16.38,-115.517 v 21.015 c 0,8.698 -7.333,15.75 -16.38,15.75 -9.046,0 -16.38,-7.052 -16.38,-15.75 v -21.015 c -6.626,-4.794 -10.921,-12.416 -10.921,-20.986 0,-14.475 12.247,-26.251 27.301,-26.251 15.054,0 27.301,11.776 27.301,26.251 0,8.57 -4.293,16.192 -10.921,20.986 z M 106.239,81.098 c 0,-31.844 26.944,-57.752 60.061,-57.752 33.118,0 60.061,25.908 60.061,57.752 v 30.481 C 208.509,102.19 188.042,96.848 166.3,96.848 c -21.741,0 -42.207,5.342 -60.061,14.73 z"
       style="fill:#ffffff" />
    <path
       id="path-1"
       d="m 165.055,317.146 c 45.116,0 83.581,-29.685 97.708,-70.964 3.739,-10.928 5.774,-22.667 5.774,-34.885 0,-27.403 -10.234,-52.406 -26.997,-71.222 V 91.643 C 241.54,48.502 206.321,1.11 164.144,1.11 121.973,1.11 88.572,48.502 88.572,91.643 v 48.43 c -16.761,18.818 -26.995,43.821 -26.995,71.224 0,58.363 46.424,105.849 103.478,105.849 z m 13.5,-101.259 v 18.421 c 0,7.627 -6.046,13.805 -13.5,13.805 -7.45,0 -13.495,-6.178 -13.495,-13.805 v -18.421 c -5.46,-4.202 -8.998,-10.882 -8.998,-18.396 0,-12.688 10.093,-23.011 22.493,-23.011 12.408,0 22.499,10.323 22.499,23.011 0,7.514 -3.537,14.194 -8.999,18.396 z M 115.568,91.643 c 0,-27.913 22.2,-50.623 49.487,-50.623 27.29,0 49.49,22.71 49.49,50.623 v 26.719 c -14.706,-8.232 -31.571,-12.912 -49.49,-12.912 -17.915,0 -34.778,4.68 -49.487,12.911 z"
       style="fill-opacity:1;stroke-width:1.142;stroke:#cbffd5;stroke-opacity:0.55676514;fill:#296685" />
  </g>
</svg>
