<?xml version="1.0" encoding="UTF-8" standalone="no"?>
<svg
   id="emoji"
   viewBox="0 0 72 72"
   version="1.1"
   sodipodi:docname="ChannelRegion.svg"
   inkscape:version="1.3.2 (091e20e, 2023-11-25)"
   inkscape:export-filename="ChannelRegion.png"
   inkscape:export-xdpi="96"
   inkscape:export-ydpi="96"
   xmlns:inkscape="http://www.inkscape.org/namespaces/inkscape"
   xmlns:sodipodi="http://sodipodi.sourceforge.net/DTD/sodipodi-0.dtd"
   xmlns:xlink="http://www.w3.org/1999/xlink"
   xmlns="http://www.w3.org/2000/svg"
   xmlns:svg="http://www.w3.org/2000/svg"
   xmlns:bx="https://boxy-svg.com">
  <sodipodi:namedview
     id="namedview7"
     pagecolor="#ffffff"
     bordercolor="#000000"
     borderopacity="0.25"
     inkscape:showpageshadow="2"
     inkscape:pageopacity="0.0"
     inkscape:pagecheckerboard="0"
     inkscape:deskcolor="#d1d1d1"
     inkscape:zoom="7.4861111"
     inkscape:cx="36"
     inkscape:cy="27.784787"
     inkscape:window-width="1472"
     inkscape:window-height="1212"
     inkscape:window-x="0"
     inkscape:window-y="25"
     inkscape:window-maximized="0"
     inkscape:current-layer="emoji" />
  <defs
     id="defs4">
    <linearGradient
       id="gradient-1"
       bx:pinned="true">
      <title
         id="title1">vertix</title>
      <stop
         offset="0"
         style="stop-color: rgba(79, 231, 255, 0.98);"
         id="stop1" />
      <stop
         offset="0.295"
         style="stop-color: rgb(41, 189, 251);"
         id="stop2" />
      <stop
         offset="0.614"
         style="stop-color: rgb(2, 143, 247);"
         id="stop3" />
      <stop
         offset="1"
         style="stop-color: rgb(33, 76, 158);"
         id="stop4" />
    </linearGradient>
    <radialGradient
       gradientUnits="userSpaceOnUse"
       cx="13.947"
       cy="59.074"
       r="21.194"
       id="gradient-1-3"
       gradientTransform="matrix(9.450373, -10.58197, 1.246667, 1.11004, -190.889427, 144.709779)"
       xlink:href="#gradient-1" />
  </defs>
  <g
     id="color"
     transform="matrix(0.92656919,0.27950635,-0.45317008,1.5022679,18.802377,-27.798876)">
    <title
       id="title7">Earth</title>
  </g>
  <circle
     cx="44.904881"
     cy="24.149368"
     r="35.599998"
     style="fill:#05d7ff;fill-opacity:0.854902;stroke-width:9.889"
     fill="#88C9F9"
     id="circle7"
     transform="rotate(16.78632)" />
  <path
     d="M 59.90484,9.7390753 C 57.645632,10.230551 55.489071,11.562485 53.497643,10.245224 50.268507,8.1106828 46.249099,4.3161754 42.278694,6.3460034 c -3.968871,2.0282021 -5.499653,4.5370116 -1.677658,5.5614696 3.822374,1.026662 7.782888,-2.6878083 9.106596,-0.22351 1.321504,2.464679 0.382244,3.860913 -4.291844,3.095402 -4.673419,-0.764265 -9.742917,-1.517447 -12.346056,-2.302703 -2.604097,-0.785544 -3.660538,0.573252 -2.385079,2.768136 1.276417,2.195173 -1.601683,1.452315 -5.058685,2.216484 -3.456046,0.764457 -0.0026,2.581245 2.054214,4.751742 2.058043,2.169829 4.484904,0.963303 6.26411,-1.080966 1.780452,-2.044938 7.216521,-3.504164 9.020033,-2.571564 1.80447,0.932889 1.518844,1.879746 0.663932,3.425721 -0.855489,1.54789 1.062558,1.612585 1.75128,-0.24465 0.688055,-1.85848 3.248743,-2.63608 4.940548,-2.254209 1.689601,0.382251 2.397112,3.178745 0.147972,3.789198 -2.251055,0.609876 -4.430973,0.987396 -2.242121,2.294229 2.187896,1.306545 2.91721,4.882553 -0.19646,5.363823 -3.11405,0.479066 -8.097483,-0.119679 -9.905277,-1.827551 -1.80942,-1.709407 -6.198604,-4.710916 -7.749221,-4.276216 -1.550906,0.435658 -2.518809,1.078517 -4.232727,1.192384 -1.711714,0.113487 -8.841403,1.06182 -10.06777,4.694433 -1.225699,3.633858 -2.592441,7.742201 -0.143252,8.608447 2.449858,0.867492 8.985533,1.033072 11.342397,0.06551 2.359356,-0.968896 4.855061,0.172508 5.147092,2.196075 0.292031,2.023567 -0.619447,2.912195 -2.305425,5.502663 -1.683774,2.590088 -0.742335,4.42413 -0.16455,7.307877 0.577496,2.884705 1.213817,4.625661 0.677798,6.402574 -0.535441,1.774998 0.823121,4.120292 4.556384,2.017883 3.732016,-2.10174 8.084436,-7.115386 9.910356,-8.888615 1.825919,-1.773228 4.201577,-6.220642 5.906721,-6.738246 1.70668,-0.519231 4.633984,-2.089738 2.868353,-2.233796 -1.766589,-0.144348 -4.935239,-1.617226 -5.048501,-4.233416 -0.112973,-2.617148 -2.307418,-8.185172 -0.510382,-8.15907 1.797993,0.02639 2.757034,3.703032 3.024301,5.382797 0.267556,1.678807 0.679929,3.739721 1.958025,4.641255 1.27685,0.902202 5.451257,-1.810822 6.56369,-2.070618 1.111764,-0.261042 1.078534,-2.723571 -0.885558,-3.05806 -1.965048,-0.334778 -4.37718,-1.320409 -4.020796,-2.501826 0.356383,-1.181417 3.18802,-2.008891 4.973342,-1.081779 1.78628,0.927401 3.028853,1.946694 3.78389,3.723462 0.755037,1.776768 2.336445,5.093829 2.783384,7.036695 0.446939,1.942865 1.085029,2.393344 2.45105,-0.421072 0.906936,-1.870791 1.651374,-2.825476 2.385316,-3.87002 C 72.740079,28.730173 68.303744,17.363598 59.90484,9.7390753 Z"
     style="fill:#26008e;stroke-width:1.977"
     id="path7" />
</svg>
