<?xml version="1.0" encoding="UTF-8" standalone="no"?>
<svg
   id="emoji"
   viewBox="0 0 72 72"
   version="1.1"
   sodipodi:docname="channel-emoji-permission copy.svg"
   inkscape:export-filename="channel-emoji-permission copy.png"
   inkscape:export-xdpi="96"
   inkscape:export-ydpi="96"
   inkscape:version="1.3.2 (091e20e, 2023-11-25)"
   xmlns:inkscape="http://www.inkscape.org/namespaces/inkscape"
   xmlns:sodipodi="http://sodipodi.sourceforge.net/DTD/sodipodi-0.dtd"
   xmlns:xlink="http://www.w3.org/1999/xlink"
   xmlns="http://www.w3.org/2000/svg"
   xmlns:svg="http://www.w3.org/2000/svg"
   xmlns:bx="https://boxy-svg.com">
  <sodipodi:namedview
     id="namedview15"
     pagecolor="#ffffff"
     bordercolor="#000000"
     borderopacity="0.25"
     inkscape:showpageshadow="2"
     inkscape:pageopacity="0.0"
     inkscape:pagecheckerboard="0"
     inkscape:deskcolor="#d1d1d1"
     inkscape:zoom="10.555556"
     inkscape:cx="36"
     inkscape:cy="47.794737"
     inkscape:window-width="1392"
     inkscape:window-height="1212"
     inkscape:window-x="0"
     inkscape:window-y="25"
     inkscape:window-maximized="0"
     inkscape:current-layer="emoji" />
  <defs
     id="defs8">
    <linearGradient
       id="linearGradient28"
       inkscape:collect="always">
      <stop
         style="stop-color:#05d7f0;stop-opacity:1;"
         offset="0"
         id="stop28" />
      <stop
         style="stop-color:#000000;stop-opacity:0;"
         offset="1"
         id="stop29" />
    </linearGradient>
    <linearGradient
       id="linearGradient27"
       bx:pinned="true">
      <title
         id="title24">vertix</title>
      <stop
         offset="0"
         style="stop-color: rgba(79, 231, 255, 0.98);"
         id="stop24" />
      <stop
         offset="0.295"
         style="stop-color: rgb(41, 189, 251);"
         id="stop25" />
      <stop
         offset="0.29499999"
         style="stop-color: rgb(2, 143, 247);"
         id="stop26" />
      <stop
         offset="1"
         style="stop-color: rgb(33, 76, 158);"
         id="stop27" />
    </linearGradient>
    <linearGradient
       id="vertix"
       bx:pinned="true">
      <title
         id="title1">vertix</title>
      <stop
         offset="0"
         style="stop-color: rgba(79, 231, 255, 0.98);"
         id="stop1" />
      <stop
         offset="0.295"
         style="stop-color: rgb(41, 189, 251);"
         id="stop2" />
      <stop
         offset="0.614"
         style="stop-color: rgb(2, 143, 247);"
         id="stop3" />
      <stop
         offset="1"
         style="stop-color: rgb(33, 76, 158);"
         id="stop4" />
    </linearGradient>
    <linearGradient
       id="vertix-1"
       gradientUnits="userSpaceOnUse"
       x1="66.57"
       y1="21.261"
       x2="66.57"
       y2="147.361"
       gradientTransform="matrix(1.011287, 0, 0, 1.012024, -148.961419, -95.889657)"
       xlink:href="#vertix" />
    <linearGradient
       id="vertix-2"
       gradientUnits="userSpaceOnUse"
       x1="28.416"
       y1="1.231"
       x2="28.416"
       y2="64.332"
       gradientTransform="matrix(-0.764337, -0.461711, -0.532789, 0.7204, 96.324163, -18.505714)"
       xlink:href="#vertix" />
    <linearGradient
       id="vertix-10"
       gradientUnits="userSpaceOnUse"
       x1="22.749"
       y1="6.466"
       x2="22.749"
       y2="46.801"
       gradientTransform="matrix(0.585285, 0, 0, 0.866488, 82.694313, -44.770636)"
       xlink:href="#vertix" />
    <linearGradient
       id="vertix-3"
       gradientUnits="userSpaceOnUse"
       x1="58.33889"
       y1="-0.10387158"
       x2="51.535"
       y2="32.813"
       xlink:href="#gradient-1" />
    <linearGradient
       id="vertix-4"
       gradientUnits="userSpaceOnUse"
       x1="31.329063"
       y1="35.465771"
       x2="51.704"
       y2="60.652"
       xlink:href="#linearGradient27" />
    <radialGradient
       gradientUnits="userSpaceOnUse"
       cx="13.947"
       cy="59.074"
       r="21.194"
       id="gradient-1-3"
       gradientTransform="matrix(9.450373, -10.58197, 1.246667, 1.11004, -190.889427, 144.709779)"
       xlink:href="#gradient-1" />
    <linearGradient
       id="gradient-1">
      <title
         id="title4">vertix</title>
      <stop
         offset="0"
         style="stop-color: rgba(79, 231, 255, 0.98);"
         id="stop5" />
      <stop
         offset="0.295"
         style="stop-color: rgb(41, 189, 251);"
         id="stop6" />
      <stop
         offset="0.614"
         style="stop-color: rgb(2, 143, 247);"
         id="stop7" />
      <stop
         offset="1"
         style="stop-color: rgb(33, 76, 158);"
         id="stop8" />
    </linearGradient>
    <linearGradient
       inkscape:collect="always"
       xlink:href="#linearGradient28"
       id="linearGradient29"
       x1="46.795789"
       y1="18.1091"
       x2="56.27521"
       y2="18.1091"
       gradientUnits="userSpaceOnUse" />
  </defs>
  <g
     style=""
     transform="matrix(1.343751, 0, 0, 1.066094, 81.127182, 49.796165)"
     id="g8">
    <title
       id="title8">Key</title>
    <path
       stroke-linecap="round"
       stroke-linejoin="round"
       stroke-opacity="1"
       d="M 65.566 -25.081 C 65.548 -29.116 62.02 -32.292 57.637 -32.082 C 53.235 -31.85 49.641 -28.429 49.643 -24.371 C 49.583 -20.32 53.158 -21.049 57.61 -21.219 C 62.009 -21.451 65.552 -21 65.566 -25.081 Z M 59.567 15.823 L 60.026 16.469 L 60.439 15.734 C 60.27 15.72 60.548 -10.044 60.674 -10.03 L 59.391 -9.824 L 59.567 15.823 Z M 49.905 -6.265 C 49.866 -7.303 49.767 -8.345 49.593 -9.464 C 49.089 -12.012 48.082 -14.404 46.575 -16.513 C 45.025 -18.739 42.983 -20.65 40.572 -22.106 L 39.86 -22.538 C 40.702 -25.9 42.799 -29.304 45.668 -32.09 C 52.277 -38.455 62.989 -38.928 69.551 -33.09 C 76.101 -27.32 78.329 -17.983 71.757 -11.628 C 70.314 -10.286 67.758 -8.358 65.515 -7.161 L 65.413 19.606 C 65.402 20.582 64.762 22.012 64.017 22.758 L 61.059 25.583 C 61.827 24.847 62.13 24.568 62.13 24.568 C 62.086 24.541 60.004 26.481 59.671 26.278 L 55.123 23.654 C 54.361 22.981 53.773 21.64 53.86 20.649 L 54.356 9.454 L 54.331 9.316 L 49.377 6.847 L 49.981 -6.28 L 49.905 -6.265 Z"
       style="stroke-dasharray: 1729, 1729; stroke-dashoffset: 0; fill: url('#vertix-2'); stroke-width: 2.904; stroke: rgb(0, 0, 0); transform-origin: 85.401px 0.989px;"
       id="path8" />
  </g>
  <g
     transform="matrix(0.524947, 0, 0, 0.529777, 2.012925, -8.042993)"
     id="g9">
    <title
       id="title9">Kog</title>
    <path
       stroke-linecap="round"
       stroke-linejoin="round"
       stroke-opacity="1"
       d="M -60.353 -1.609 C -65.308 10.029 -78.758 15.495 -90.489 10.737 C -102.321 5.779 -107.681 -7.681 -102.726 -19.319 C -97.973 -31.059 -84.32 -36.523 -72.69 -31.565 C -61.061 -26.707 -55.397 -13.449 -60.353 -1.609 Z M -34.261 -17.497 L -17.373 -28.023 L -23.643 -43.203 L -42.959 -38.649 C -45.689 -42.595 -49.127 -45.835 -52.97 -48.667 L -48.521 -67.897 L -63.892 -74.273 L -74.308 -57.675 C -79.062 -58.383 -83.815 -58.383 -88.466 -57.675 L -98.883 -74.373 L -114.153 -68.199 L -109.906 -48.871 C -113.85 -46.137 -117.288 -42.799 -120.12 -38.953 L -139.233 -43.405 L -145.705 -28.225 L -129.12 -17.599 C -129.828 -12.843 -129.828 -8.085 -129.12 -3.431 L -145.908 6.791 L -139.638 21.971 L -120.322 17.721 C -117.592 21.465 -114.153 24.907 -110.31 27.739 L -114.861 46.867 L -99.591 53.141 L -88.871 36.545 C -84.118 37.253 -79.365 37.253 -74.713 36.545 L -64.196 53.243 L -48.824 46.969 L -53.274 27.639 C -49.532 24.907 -46.296 21.667 -43.363 17.721 L -23.946 22.173 L -17.474 6.993 L -34.261 -3.329 C -33.554 -8.085 -33.554 -12.741 -34.261 -17.497 Z"
       style="stroke-dasharray: 1729, 1729; stroke-dashoffset: 0; fill: url('#vertix-1'); stroke: rgb(0, 0, 0); stroke-width: 9.62;"
       id="path9" />
  </g>
  <path
     class="st4"
     d="M 103.168 -14.872 L 98.645 -16.189 L 98.645 -17.695 C 100.364 -18.147 101.901 -19.023 103.079 -20.228 C 104.258 -21.432 105.025 -22.912 105.296 -24.49 L 105.411 -24.49 C 105.669 -24.495 105.925 -24.548 106.161 -24.642 C 106.397 -24.739 106.607 -24.875 106.782 -25.045 C 106.958 -25.214 107.09 -25.414 107.176 -25.632 C 107.261 -25.85 107.296 -26.083 107.281 -26.311 C 107.241 -26.593 107.118 -26.858 106.928 -27.084 C 106.737 -27.31 106.481 -27.489 106.191 -27.6 L 106.191 -30.359 C 106.105 -32.721 104.998 -34.959 103.097 -36.603 C 101.197 -38.25 98.653 -39.168 96.005 -39.168 C 93.357 -39.168 90.813 -38.25 88.913 -36.603 C 87.012 -34.959 85.905 -32.72 85.822 -30.359 L 85.822 -27.65 C 85.549 -27.542 85.308 -27.375 85.123 -27.165 C 84.937 -26.955 84.812 -26.706 84.759 -26.444 C 84.719 -26.205 84.734 -25.959 84.809 -25.725 C 84.882 -25.49 85.012 -25.272 85.185 -25.087 C 85.358 -24.902 85.578 -24.75 85.822 -24.644 C 86.068 -24.539 86.336 -24.482 86.606 -24.477 L 86.722 -24.477 C 86.983 -22.889 87.747 -21.402 88.926 -20.191 C 90.104 -18.979 91.648 -18.093 93.373 -17.638 L 93.373 -16.185 L 88.84 -14.868 C 87.336 -14.429 86.03 -13.572 85.105 -12.426 C 84.18 -11.282 83.686 -9.904 83.696 -8.492 L 83.696 -4.218 L 108.324 -4.218 L 108.324 -8.492 C 108.334 -9.904 107.838 -11.284 106.913 -12.429 C 105.985 -13.581 104.674 -14.435 103.168 -14.872 Z"
     style="stroke-linecap: round; stroke-linejoin: round; stroke: rgb(0, 0, 0); fill: url('#vertix-10'); stroke-width: 0.668;"
     id="path10" />
  <g
     id="hair"
     transform="matrix(1, 0, 0, 1, -4.561491, -8.810666)" />
  <g
     id="skin"
     transform="matrix(1, 0, 0, 1, -4.561491, -8.810666)" />
  <g
     id="skin-shadow"
     transform="matrix(1, 0, 0, 1, -4.561491, -8.810666)" />
  <g
     id="color"
     transform="matrix(-1.3403857,-1.4418553,-1.1634029,1.1824579,143.44173,72.155215)">
    <title
       id="title13">key</title>
    <path
       stroke="none"
       d="m 55.94,32.583 c 3.583,-1.818 6.069,-5.786 6.069,-10.389 0,-6.321 -4.729,-12.783 -10.513,-12.783 -5.784,0 -10.434,6.462 -10.434,12.783 0,5.112 3.101,10.046 7.358,10.619"
       style="fill:url(#vertix-3);stroke-width:2.41505px"
       id="path13" />
    <path
       stroke-linecap="round"
       stroke-linejoin="round"
       stroke-miterlimit="10"
       style="fill:url(#vertix-4);fill-opacity:0.79;stroke-width:2.41505px"
       d="m 56.027,32.349 -0.004,1.154 -0.007,1.923 0.156,20.725 -4.502,4.501 -3.66,-4.66 2.883,-2.883 -3.157,-3.157 2.641,-3.641 -3.14,-3.141 0.014,-2.976 2.709,-2.71 -1.241,-1.241 v -3.894"
       id="path14" />
    <polygon
       stroke="none"
       points="53.5436,57.0903 54.7443,55.8883 54.5252,36.0609 53.3114,36.0743 "
       style="stroke-width:2.41505px"
       id="polygon14" />
    <circle
       cx="51.5355"
       cy="18.1091"
       transform="matrix(0.7071,-0.7071,0.7071,0.7071,2.2893,41.7451)"
       stroke="none"
       style="fill:#4e4f58;stroke-width:2.43822px"
       id="ellipse14"
       r="3.5206001" />
    <g
       id="line">
      <polyline
         fill="none"
         stroke="#000000"
         stroke-linecap="round"
         stroke-linejoin="round"
         stroke-miterlimit="10"
         points="56.0253,36.0256 56.2815,56.4716 51.7209,61.0322 46.9553,56.2666 49.8761,53.3458 46.6478,50.1175 50.3373,46.428 47.1258,43.2165 47.1258,40.1873 49.8712,37.4419 48.6019,36.1726"
         style="stroke-width:2.41505px;stroke:#05d7ff;stroke-opacity:0.85490197"
         id="polyline14" />
      <circle
         cx="51.5355"
         cy="18.1091"
         transform="matrix(0.7071,-0.7071,0.7071,0.7071,2.2893,41.7451)"
         fill="none"
         stroke="#000000"
         stroke-linecap="round"
         stroke-linejoin="round"
         stroke-miterlimit="10"
         style="stroke-width:2.43822px;stroke:url(#linearGradient29)"
         id="ellipse15"
         r="3.5206001" />
      <path
         fill="none"
         stroke="#000000"
         stroke-linecap="round"
         stroke-linejoin="round"
         stroke-miterlimit="10"
         d="m 56.017,31.636 c 3.571,-1.769 6.027,-5.59 5.993,-10 C 61.966,15.764 57.35,8.658 51.808,8.413 51.634,8.405 51.458,8.402 51.282,8.403 45.498,8.447 41.019,15.738 41.065,21.795 c 0.037,4.898 3.133,9.022 7.375,10.399"
         style="stroke-width:2.41505px;stroke:#05d7ff;stroke-opacity:0.85490197"
         id="path15" />
    </g>
  </g>
</svg>
