<?xml version="1.0" encoding="UTF-8" standalone="no"?>
<svg
   version="1.1"
   width="256"
   height="256"
   viewBox="0 0 256 256"
   xml:space="preserve"
   id="svg2"
   sodipodi:docname="claim.svg"
   inkscape:export-filename="v-dc-transfter.png"
   inkscape:export-xdpi="111.85285"
   inkscape:export-ydpi="111.85285"
   inkscape:version="1.3.2 (091e20e, 2023-11-25)"
   xmlns:inkscape="http://www.inkscape.org/namespaces/inkscape"
   xmlns:sodipodi="http://sodipodi.sourceforge.net/DTD/sodipodi-0.dtd"
   xmlns:xlink="http://www.w3.org/1999/xlink"
   xmlns="http://www.w3.org/2000/svg"
   xmlns:svg="http://www.w3.org/2000/svg"
   xmlns:bx="https://boxy-svg.com"><sodipodi:namedview
   id="namedview2"
   pagecolor="#ffffff"
   bordercolor="#000000"
   borderopacity="0.25"
   inkscape:showpageshadow="2"
   inkscape:pageopacity="0.0"
   inkscape:pagecheckerboard="0"
   inkscape:deskcolor="#d1d1d1"
   inkscape:zoom="1.4142136"
   inkscape:cx="58.336309"
   inkscape:cy="46.669047"
   inkscape:window-width="2000"
   inkscape:window-height="1288"
   inkscape:window-x="967"
   inkscape:window-y="354"
   inkscape:window-maximized="0"
   inkscape:current-layer="g2" />

<defs
   id="defs1"><linearGradient
   id="linearGradient7"
   bx:pinned="true"><title
     id="title3">vertix</title><stop
     offset="0"
     style="stop-color:#ffffff;stop-opacity:0;"
     id="stop4" /><stop
     offset="0.54464567"
     style="stop-color: rgb(41, 189, 251);"
     id="stop5" /><stop
     offset="0.80514818"
     style="stop-color: rgb(2, 143, 247);"
     id="stop6" /><stop
     offset="1"
     style="stop-color: rgb(33, 76, 158);"
     id="stop7" /></linearGradient><linearGradient
   id="linearGradient18"
   bx:pinned="true"><title
     id="title14">vertix</title><stop
     offset="0"
     style="stop-color:#ffffff;stop-opacity:0;"
     id="stop15" /><stop
     offset="0.246"
     style="stop-color: rgb(41, 189, 251);"
     id="stop16" /><stop
     offset="0.614"
     style="stop-color: rgb(2, 143, 247);"
     id="stop17" /><stop
     offset="1"
     style="stop-color: rgb(33, 76, 158);"
     id="stop18" /></linearGradient><linearGradient
   id="linearGradient14"
   bx:pinned="true"><title
     id="title11">vertix</title><stop
     offset="0"
     style="stop-color:#ffffff;stop-opacity:1;"
     id="stop11" /><stop
     offset="0.246"
     style="stop-color: rgb(41, 189, 251);"
     id="stop12" /><stop
     offset="0.614"
     style="stop-color: rgb(2, 143, 247);"
     id="stop13" /><stop
     offset="1"
     style="stop-color: rgb(33, 76, 158);"
     id="stop14" /></linearGradient>
<radialGradient
   gradientUnits="userSpaceOnUse"
   cx="13.947"
   cy="59.074"
   r="21.194"
   id="gradient-1-3"
   gradientTransform="matrix(9.450373, -10.58197, 1.246667, 1.11004, -190.889427, 144.709779)"
   xlink:href="#gradient-1" /><linearGradient
   id="gradient-1"
   bx:pinned="true"><title
     id="title1">vertix</title><stop
     offset="0"
     style="stop-color: rgba(79, 231, 255, 0.98);"
     id="stop1" /><stop
     offset="0.246"
     style="stop-color: rgb(41, 189, 251);"
     id="stop2" /><stop
     offset="0.614"
     style="stop-color: rgb(2, 143, 247);"
     id="stop3" /><stop
     offset="1"
     style="stop-color: rgb(33, 76, 158);"
     id="stop4-1" /></linearGradient><linearGradient
   id="gradient-1-2"
   gradientUnits="userSpaceOnUse"
   x1="90.872"
   y1="37.711"
   x2="90.872"
   y2="96.822"
   gradientTransform="matrix(1, 0, 0, 0.913635, 0, 8.361995)"
   xlink:href="#gradient-1" /><radialGradient
   gradientUnits="userSpaceOnUse"
   cx="13.947"
   cy="59.074"
   r="21.194"
   id="gradient-1-1"
   gradientTransform="matrix(-1.419606, -5.525405, 1.61795, -0.414451, -61.219033, 164.243639)"
   xlink:href="#gradient-1" /><radialGradient
   gradientUnits="userSpaceOnUse"
   cx="13.947"
   cy="59.074"
   r="21.194"
   id="gradient-1-4"
   gradientTransform="matrix(6.37945, -5.028625, 0.935273, 1.211067, -129.663996, 61.289202)"
   xlink:href="#gradient-1" /><radialGradient
   gradientUnits="userSpaceOnUse"
   cx="13.947"
   cy="59.074"
   r="21.194"
   id="gradient-1-5"
   gradientTransform="matrix(9.450373, -10.58197, 1.246667, 1.11004, -190.889427, 144.709779)"
   xlink:href="#gradient-1" /><radialGradient
   gradientUnits="userSpaceOnUse"
   cx="13.947"
   cy="59.074"
   r="21.194"
   id="gradient-1-6"
   gradientTransform="matrix(9.450373, -10.58197, 1.246667, 1.11004, -190.889427, 144.709779)"
   xlink:href="#gradient-1" /><radialGradient
   gradientUnits="userSpaceOnUse"
   cx="13.947"
   cy="59.074"
   r="21.194"
   id="gradient-1-7"
   gradientTransform="matrix(9.450373, -10.58197, 1.246667, 1.11004, -190.889427, 144.709779)"
   xlink:href="#gradient-1" /><linearGradient
   inkscape:collect="always"
   xlink:href="#linearGradient18"
   id="linearGradient19"
   gradientUnits="userSpaceOnUse"
   gradientTransform="matrix(-1.1204414,0,0,-1.586,97.145454,28.340631)"
   x1="133.69296"
   y1="54.723438"
   x2="19.7936"
   y2="55.396835" /><linearGradient
   inkscape:collect="always"
   xlink:href="#linearGradient18"
   id="linearGradient23"
   gradientUnits="userSpaceOnUse"
   gradientTransform="matrix(1.0883911,0,0,-1.3357478,-13.035621,41.714391)"
   x1="133.69296"
   y1="54.723438"
   x2="19.7936"
   y2="55.396835" /><linearGradient
   id="linearGradient18-9"><title
     id="title14-4">vertix</title><stop
     offset="0"
     style="stop-color:#ffffff;stop-opacity:1;"
     id="stop15-7" /><stop
     offset="0.52138245"
     style="stop-color: rgb(41, 189, 251);"
     id="stop16-0" /><stop
     offset="0.72205383"
     style="stop-color: rgb(2, 143, 247);"
     id="stop17-4" /><stop
     offset="1"
     style="stop-color: rgb(33, 76, 158);"
     id="stop18-0" /></linearGradient><linearGradient
   id="linearGradient13"
   gradientTransform="matrix(2.5045805,0,0,1.1909335,-11.316978,-1.9651341)"
   x1="32.38713"
   y1="69.680138"
   x2="40.333962"
   y2="69.680138"
   gradientUnits="userSpaceOnUse"><title
     id="title10">vertix</title><stop
     offset="0"
     style="stop-color:#ffffff;stop-opacity:1;"
     id="stop10" /><stop
     offset="0.52138245"
     style="stop-color: rgb(41, 189, 251);"
     id="stop11-5" /><stop
     offset="0.72205383"
     style="stop-color: rgb(2, 143, 247);"
     id="stop12-1" /><stop
     offset="1"
     style="stop-color: rgb(33, 76, 158);"
     id="stop13-2" /></linearGradient><linearGradient
   inkscape:collect="always"
   xlink:href="#linearGradient7"
   id="linearGradient1"
   gradientUnits="userSpaceOnUse"
   x1="-12.19377"
   y1="30.678684"
   x2="47.113461"
   y2="31.205664"
   gradientTransform="matrix(1.851797,0,0,1.9100561,-16.675184,-10.541481)" /></defs>
<g
   style="stroke: none; stroke-width: 0; stroke-dasharray: none; stroke-linecap: butt; stroke-linejoin: miter; stroke-miterlimit: 10; fill: none; fill-rule: nonzero; opacity: 1;"
   transform="translate(1.4065934065934016 1.4065934065934016) scale(2.81 2.81)"
   id="g2">
	<path
   d="m 19.688212,-91.296091 c 0.698035,0 1.402794,0.191906 2.077299,0.58682 2.03136,1.1895 3.343396,3.96976 3.343396,7.079904 v 5.533556 h 51.011107 c 1.856572,0 3.361326,2.129999 3.361326,4.758001 0,2.628002 -1.504754,4.757999 -3.361326,4.757999 H 23.79799 c -2.984855,0 -5.412851,-3.438448 -5.412851,-7.663551 v -2.913483 L 3.5684219,-58.18358 18.385139,-37.211903 v -2.913482 c 0,-4.225103 2.427996,-7.663551 5.412851,-7.663551 l 1.309797,15.049553 c 0,3.111733 -1.312038,5.890405 -3.343397,7.081491 -2.032482,1.1895 -4.346192,0.537653 -5.900243,-1.663713 L -2.112216,-52.767391 c -2.1109125,-2.988024 -2.1109125,-7.847528 0,-10.835552 l 17.978602,-25.445785 c 1.036408,-1.470223 2.415673,-2.247363 3.821826,-2.247363 z"
   style="fill:url(#linearGradient19);fill-rule:nonzero;stroke:#05d7ff;stroke-width:3.81594;stroke-linecap:butt;stroke-linejoin:miter;stroke-miterlimit:10;stroke-dasharray:none;stroke-opacity:0.855769"
   stroke-linecap="round"
   id="path1-3"
   sodipodi:nodetypes="scscssssscccsccccsccs" /><path
   d="m 62.205943,-59.045061 c -0.678068,0 -1.362674,0.161627 -2.017876,0.494227 -1.973254,1.001811 -3.247767,3.343379 -3.247767,5.962777 v 4.660427 H 24.817533 c -1.803472,0 -3.265177,1.793909 -3.265177,4.007243 0,2.213335 1.461705,4.007242 3.265177,4.007242 h 33.396185 c 2.899473,0 5.25802,-2.8959 5.25802,-6.454331 v -2.453769 l 14.392885,17.663927 -14.392885,17.66259 v -2.453768 c 0,-3.55843 -4.952651,-4.713655 -7.852102,-4.724944 l -55.52053,-0.216173 c -1.8034582,-0.007 -3.265177,1.793909 -3.265177,4.007245 0,2.213333 1.4617193,4.000055 3.265177,4.007242 l 54.248208,0.216173 2.594082,2.9310348 c 1.736899,1.962511 1.274501,4.960968 3.247755,5.964114 1.974349,1.001812 4.221871,0.452818 5.731461,-1.401198 L 83.382765,-26.59574 c 2.050529,-2.516549 2.050529,-6.60928 0,-9.125829 l -17.46432,-21.430736 c -1.006758,-1.238239 -2.346579,-1.892756 -3.712502,-1.892756 z"
   style="fill:url(#linearGradient23);fill-rule:nonzero;stroke:#05d7ff;stroke-width:3.45160142;stroke-linecap:butt;stroke-linejoin:miter;stroke-miterlimit:10;stroke-dasharray:none;stroke-opacity:0.855769"
   stroke-linecap="round"
   id="path1-3-4"
   sodipodi:nodetypes="scscssssscccssssscsccsccs" />
	
<path
   d="M 83.478079,20.713588 H 65.53739 V 8.622966 c 0,-2.5147852 -1.797385,-5.2589877 -3.992456,-5.2589877 H 28.856738 c -2.19507,0 -3.99245,2.7442025 -3.99245,5.2589877 V 20.713588 H 6.9274951 c -1.9942761,0 -3.6240072,1.99799 -3.6240072,4.441335 v 45.607719 c 0,2.437771 1.6297311,4.437992 3.6240072,4.437992 H 83.478079 c 1.992323,0 3.622057,-2.000221 3.622057,-4.437992 V 25.154923 c 0,-2.443345 -1.629734,-4.441335 -3.622057,-4.441335 z M 31.726312,15.480866 c 0,-2.514785 1.797387,-3.197833 3.992454,-3.197833 H 54.68291 c 2.195071,0 3.992453,0.683048 3.992453,3.197833 v 5.232722 H 31.726312 Z"
   id="path9"
   style="fill:url(#linearGradient1);stroke:#05d7ff;stroke-width:4.83239;stroke-dasharray:none;stroke-opacity:0.854902"
   sodipodi:nodetypes="scsssscssssssssssssccs" /><path
   d="M 0.90837863,82.013011 H 18.87739 v 7.476683 H 0.90837863 Z"
   id="path10"
   style="fill:#0d00c8;stroke:#05d7ff;stroke-width:2.74413;stroke-dasharray:none;stroke-opacity:0.854902;stroke-linecap:square;stroke-miterlimit:19.4;stroke-linejoin:bevel;fill-opacity:1" /><path
   d="m 24.194694,82.013011 h 17.96722 v 7.476683 h -17.96722 z"
   id="path11"
   style="fill:#0d00c8;stroke:#05d7ff;stroke-width:2.74413;stroke-dasharray:none;stroke-opacity:0.854902;stroke-linecap:square;stroke-miterlimit:19.4;stroke-linejoin:bevel;fill-opacity:1" /><path
   d="m 47.481018,82.013011 h 17.967216 v 7.476683 H 47.481018 Z"
   id="path12"
   style="fill:#0d00c8;stroke:#05d7ff;stroke-width:2.74413;stroke-dasharray:none;stroke-opacity:0.854902;stroke-linecap:square;stroke-miterlimit:19.4;stroke-linejoin:bevel;fill-opacity:1" /><path
   d="m 70.767336,82.013011 h 17.967216 v 7.476683 H 70.767336 Z"
   id="path13"
   style="fill:#0d00c8;stroke:#05d7ff;stroke-width:2.74413;stroke-dasharray:none;stroke-opacity:0.854902;stroke-linecap:square;stroke-miterlimit:19.4;stroke-linejoin:bevel;fill-opacity:1" /></g>
</svg>
