<?xml version="1.0" encoding="UTF-8" standalone="no"?>
<svg
   viewBox="0 0 36 36"
   version="1.1"
   id="svg6"
   sodipodi:docname="channel-emoji-clear-chat.svg"
   inkscape:version="1.3.2 (091e20e, 2023-11-25)"
   inkscape:export-filename="channel-emoji-clear-chat.png"
   inkscape:export-xdpi="96"
   inkscape:export-ydpi="96"
   xmlns:inkscape="http://www.inkscape.org/namespaces/inkscape"
   xmlns:sodipodi="http://sodipodi.sourceforge.net/DTD/sodipodi-0.dtd"
   xmlns:xlink="http://www.w3.org/1999/xlink"
   xmlns="http://www.w3.org/2000/svg"
   xmlns:svg="http://www.w3.org/2000/svg">
  <defs
     id="defs6">
    <linearGradient
       id="linearGradient8">
      <title
         id="title3">vertix</title>
      <stop
         offset="0"
         style="stop-color:#8b8b8b;stop-opacity:1;"
         id="stop3" />
      <stop
         offset="0.295"
         style="stop-color: rgb(41, 189, 251);"
         id="stop4" />
      <stop
         offset="0.614"
         style="stop-color: rgb(2, 143, 247);"
         id="stop6" />
      <stop
         offset="1"
         style="stop-color: rgb(33, 76, 158);"
         id="stop7" />
    </linearGradient>
    <linearGradient
       inkscape:collect="always"
       xlink:href="#gradient-1"
       id="linearGradient7"
       x1="18.6455"
       y1="8.9125004"
       x2="35.529499"
       y2="8.9125004"
       gradientUnits="userSpaceOnUse"
       gradientTransform="matrix(1.0662632,0,0,1.0762027,-0.94171908,-2.0370065)" />
    <linearGradient
       id="vertix-5"
       gradientUnits="userSpaceOnUse"
       x1="28.416"
       y1="1.2309999"
       x2="28.416"
       y2="64.332001"
       gradientTransform="matrix(1.304508,-0.107878,0.146777,0.876004,-23.479812,-7.987821)"
       xlink:href="#gradient-1" />
    <linearGradient
       id="gradient-1">
      <title
         id="title4">vertix</title>
      <stop
         offset="0"
         style="stop-color: rgba(79, 231, 255, 0.98);"
         id="stop5" />
      <stop
         offset="0.295"
         style="stop-color: rgb(41, 189, 251);"
         id="stop6-7" />
      <stop
         offset="0.614"
         style="stop-color: rgb(2, 143, 247);"
         id="stop7-5" />
      <stop
         offset="1"
         style="stop-color: rgb(33, 76, 158);"
         id="stop8" />
    </linearGradient>
  </defs>
  <sodipodi:namedview
     id="namedview6"
     pagecolor="#ffffff"
     bordercolor="#000000"
     borderopacity="0.25"
     inkscape:showpageshadow="2"
     inkscape:pageopacity="0.0"
     inkscape:pagecheckerboard="0"
     inkscape:deskcolor="#d1d1d1"
     inkscape:zoom="21.583333"
     inkscape:cx="18"
     inkscape:cy="33.706564"
     inkscape:window-width="1392"
     inkscape:window-height="1212"
     inkscape:window-x="1134"
     inkscape:window-y="529"
     inkscape:window-maximized="0"
     inkscape:current-layer="svg6" />
  <path
     fill="#C1694F"
     d="m 19.503878,16.070104 c -0.752782,-0.759799 -0.752782,-2.002813 0,-2.762612 L 33.640395,-0.96080376 c 0.752782,-0.75979914 1.984316,-0.75979914 2.737098,0 0.752781,0.75979914 0.752781,2.00281316 0,2.76261226 L 22.240975,16.070104 c -0.752781,0.759799 -1.984315,0.759799 -2.737097,0 z"
     id="path1"
     style="fill:url(#linearGradient7);stroke-width:1.07122" />
  <path
     fill="#66757f"
     d="M 8.4829812,27.41328 8.2654635,27.193735 c -1.0033537,-1.012707 -1.0033537,-2.668983 0,-3.680613 l 8.9032975,-8.986293 c 1.003354,-1.012706 2.644333,-1.012706 3.646621,0 l 0.217517,0.219546 c 1.003354,1.012706 1.003354,2.668982 0,3.680613 l -8.903297,8.986292 c -1.002288,1.012707 -2.6443332,1.012707 -3.6466208,0 z"
     id="path2"
     style="stroke-width:1.07122" />
  <path
     fill="#FFCC4D"
     d="m 22.26426,25.359618 c 2.020305,-1.982938 0.803096,-6.391681 -2.165125,-9.305001 -2.968221,-2.913318 -7.460049,-4.108014 -9.480354,-2.125077 l -11.56050008,11.217453 2.13469038,5.07251 1.8953264,1.860269 1.8699821,1.835394 5.8771342,2.791124 z"
     id="path3"
     style="fill:#25b8fb;fill-opacity:1;stroke-width:1.18574"
     sodipodi:nodetypes="csccccccc" />
  <path
     fill="#FFAC33"
     d="m 1.2121325,28.290385 9.2338395,-9.317762 0.618433,0.624197 -9.2338398,9.317763 z m 1.855298,1.872593 9.2338395,-9.318839 0.618433,0.624198 -9.2338399,9.319915 z m 1.8552979,1.872592 9.2317066,-9.319915 0.618433,0.624198 -9.2338395,9.319915 z m 1.8552979,1.872593 9.2327737,-9.319915 0.618432,0.624198 -9.2338393,9.318838 z"
     id="path4"
     style="fill:#ffffff;fill-opacity:1;stroke-width:0.7;stroke-dasharray:none;stroke:#ffffff;stroke-opacity:1" />
  <path
     fill="#55acee"
     d="m 10.877304,13.716914 c -0.08737,0.06931 -0.178332,0.133918 -0.258523,0.212626 l -2.6319014,2.546804 11.6825814,11.466494 2.593602,-2.58322 c 0.08019,-0.07871 0.147214,-0.167986 0.216632,-0.253741 z"
     id="path5"
     style="stroke-width:1.18574;fill:#226699;fill-opacity:1" />
  <path
     fill="#226699"
     d="M 9.688819,15.820847 9.9700818,15.153603 21.011145,25.98927 20.326539,26.261806 Z"
     id="path6"
     style="stroke-width:1.18574;fill:#ffffff;fill-opacity:1" />
</svg>
