<?xml version="1.0" encoding="UTF-8" standalone="no"?>
<svg
   viewBox="0 0 40 40"
   width="480px"
   height="480px"
   version="1.1"
   id="svg2"
   sodipodi:docname="v-dc-restart.svg"
   inkscape:version="1.3.2 (091e20e, 2023-11-25)"
   inkscape:export-filename="v-dc-restart.png"
   inkscape:export-xdpi="96"
   inkscape:export-ydpi="96"
   xmlns:inkscape="http://www.inkscape.org/namespaces/inkscape"
   xmlns:sodipodi="http://sodipodi.sourceforge.net/DTD/sodipodi-0.dtd"
   xmlns:xlink="http://www.w3.org/1999/xlink"
   xmlns="http://www.w3.org/2000/svg"
   xmlns:svg="http://www.w3.org/2000/svg"
   xmlns:bx="https://boxy-svg.com">
  <defs
     id="defs2">
    <linearGradient
       id="linearGradient10"
       bx:pinned="true">
      <title
         id="title7">vertix</title>
      <stop
         offset="0"
         style="stop-color: rgba(79, 231, 255, 0.98);"
         id="stop7" />
      <stop
         offset="0.0001"
         style="stop-color: rgb(41, 189, 251);"
         id="stop8" />
      <stop
         offset="1"
         style="stop-color: rgb(2, 143, 247);"
         id="stop9" />
      <stop
         offset="1"
         style="stop-color: rgb(33, 76, 158);"
         id="stop10" />
    </linearGradient>
    <linearGradient
       id="vertix-3"
       gradientUnits="userSpaceOnUse"
       x1="51.535"
       y1="10.748"
       x2="51.535"
       y2="32.813"
       xlink:href="#vertix" />
    <linearGradient
       id="vertix"
       bx:pinned="true">
      <title
         id="title1">vertix</title>
      <stop
         offset="0"
         style="stop-color: rgba(79, 231, 255, 0.98);"
         id="stop1" />
      <stop
         offset="0.295"
         style="stop-color: rgb(41, 189, 251);"
         id="stop2-3" />
      <stop
         offset="0.614"
         style="stop-color: rgb(2, 143, 247);"
         id="stop3-9" />
      <stop
         offset="1"
         style="stop-color: rgb(33, 76, 158);"
         id="stop4" />
    </linearGradient>
    <linearGradient
       id="vertix-4"
       gradientUnits="userSpaceOnUse"
       x1="51.703999"
       y1="32.348999"
       x2="51.703999"
       y2="60.652"
       xlink:href="#vertix" />
    <linearGradient
       id="vertix-10"
       gradientUnits="userSpaceOnUse"
       x1="22.749001"
       y1="6.4660001"
       x2="22.749001"
       y2="46.800999"
       gradientTransform="matrix(0.04877375,0,0,0.07220733,19.274751,-10.898204)"
       xlink:href="#vertix" />
    <linearGradient
       id="vertix-1"
       gradientUnits="userSpaceOnUse"
       x1="66.57"
       y1="21.261"
       x2="66.57"
       y2="147.36099"
       gradientTransform="matrix(1.011287,0,0,1.012024,-148.96142,-95.889657)"
       xlink:href="#vertix" />
    <linearGradient
       id="vertix-2"
       gradientUnits="userSpaceOnUse"
       x1="28.416"
       y1="1.2309999"
       x2="28.416"
       y2="64.332001"
       gradientTransform="matrix(-0.764337,-0.461711,-0.532789,0.7204,96.324163,-18.505714)"
       xlink:href="#vertix" />
    <linearGradient
       id="vertix-5"
       gradientUnits="userSpaceOnUse"
       x1="28.416"
       y1="1.2309999"
       x2="40.813038"
       y2="57.032745"
       gradientTransform="matrix(1.304508,-0.107878,0.146777,0.876004,-1.726479,6.739271)"
       xlink:href="#linearGradient19" />
    <linearGradient
       id="linearGradient19"
       bx:pinned="true">
      <title
         id="title20">vertix</title>
      <stop
         offset="0"
         style="stop-color: rgba(79, 231, 255, 0.98);"
         id="stop21" />
      <stop
         offset="0.0001"
         style="stop-color: rgb(41, 189, 251);"
         id="stop22" />
      <stop
         offset="0.60473353"
         style="stop-color: rgb(2, 143, 247);"
         id="stop23" />
      <stop
         offset="1"
         style="stop-color: rgb(33, 76, 158);"
         id="stop24" />
    </linearGradient>
    <radialGradient
       gradientUnits="userSpaceOnUse"
       cx="13.947"
       cy="59.074001"
       r="21.194"
       id="gradient-1-3-3"
       gradientTransform="matrix(9.450373,-10.58197,1.246667,1.11004,-178.97504,162.88269)"
       xlink:href="#linearGradient11" />
    <linearGradient
       id="linearGradient11"
       bx:pinned="true">
      <title
         id="title8-2">vertix</title>
      <stop
         offset="0.295"
         style="stop-color: rgb(41, 189, 251);"
         id="stop25" />
      <stop
         offset="0.614"
         style="stop-color: rgb(2, 143, 247);"
         id="stop26" />
      <stop
         offset="1"
         style="stop-color: rgb(33, 76, 158);"
         id="stop27" />
    </linearGradient>
    <linearGradient
       inkscape:collect="always"
       xlink:href="#linearGradient10"
       id="linearGradient7"
       x1="1.5"
       y1="20"
       x2="38.049305"
       y2="20.128771"
       gradientUnits="userSpaceOnUse"
       gradientTransform="matrix(1.0423879,0,0,1.0423879,-0.91487106,-0.847757)" />
  </defs>
  <sodipodi:namedview
     id="namedview2"
     pagecolor="#ffffff"
     bordercolor="#000000"
     borderopacity="0.25"
     inkscape:showpageshadow="2"
     inkscape:pageopacity="0.0"
     inkscape:pagecheckerboard="0"
     inkscape:deskcolor="#d1d1d1"
     inkscape:zoom="0.62083335"
     inkscape:cx="412.34898"
     inkscape:cy="152.21476"
     inkscape:window-width="1392"
     inkscape:window-height="1212"
     inkscape:window-x="2095"
     inkscape:window-y="546"
     inkscape:window-maximized="0"
     inkscape:current-layer="svg2" />
  <path
     fill="#dff0fe"
     d="M 19.932886,39.284175 C 9.2994875,39.284175 0.6487107,30.633399 0.6487107,20 c 0,-5.602835 2.4496114,-10.9221399 6.7213168,-14.5923875 L 7.7963642,5.0417343 3.4704546,0.71582479 H 16.284528 V 13.529899 L 12.246318,9.4916881 11.882525,9.7773023 C 8.717835,12.268609 6.9030378,15.994103 6.9030378,20 c 0,7.185179 5.8446692,13.029848 13.0298482,13.029848 7.185179,0 13.029848,-5.844669 13.029848,-13.029848 0,-5.371425 -3.335641,-10.2039347 -8.339103,-12.1406913 V 1.2985196 C 33.117008,3.4249908 39.217061,11.187653 39.217061,20 c 0,10.633399 -8.650777,19.284175 -19.284175,19.284175 z"
     id="path1"
     style="fill:url(#linearGradient7);fill-opacity:1;stroke-width:1.04239" />
  <path
     fill="#4788c7"
     d="M 15.763334,1.2370187 V 7.903089 12.271737 L 12.941591,9.4499926 12.286971,8.795373 11.560427,9.3676439 C 8.2696083,11.957977 6.3818439,15.832533 6.3818439,20 c 0,7.471836 6.0792061,13.551042 13.5510421,13.551042 7.471836,0 13.551041,-6.079206 13.551041,-13.551042 0,-5.466282 -3.321046,-10.395734 -8.339102,-12.4930183 V 1.9791989 C 33.0701,4.2714097 38.695867,11.651515 38.695867,20 c 0,10.345699 -8.417282,18.762981 -18.762981,18.762981 C 9.5871865,38.762981 1.1699047,30.345699 1.1699047,20 c 0,-5.451689 2.383941,-10.6261017 6.5399413,-14.1962801 L 8.5625193,5.0709213 7.7671773,4.2755793 4.7286168,1.2370187 H 15.763334 M 16.805722,0.19463087 H 2.2122924 L 7.0302092,5.0125475 C 2.8106231,8.6379725 0.12751678,13.996889 0.12751678,20 c 0,10.937775 8.86759342,19.805369 19.80536922,19.805369 10.937776,0 19.805369,-8.867594 19.805369,-19.805369 0,-9.506577 -6.701511,-17.4412335 -15.635817,-19.35714235 V 8.2210173 C 28.952668,9.9440844 32.44154,14.566033 32.44154,20 c 0,6.897481 -5.611174,12.508655 -12.508654,12.508655 -6.89748,0 -12.5086543,-5.611174 -12.5086543,-12.508655 0,-3.980879 1.8731709,-7.523955 4.7803903,-9.813039 l 4.6011,4.6011 V 7.903089 0.46460933 Z"
     id="path2"
     style="stroke-width:1.04241667;fill:#000000;fill-opacity:1;stroke:#05d7ff;stroke-opacity:0.85576922;stroke-dasharray:none" />
</svg>
