<?xml version="1.0" encoding="UTF-8" standalone="no"?>
<svg
   viewBox="0 0 128 128"
   version="1.1"
   id="svg21"
   sodipodi:docname="channel-emoji-limit.svg"
   xml:space="preserve"
   inkscape:export-filename="channel-emoji-limit.png"
   inkscape:export-xdpi="346.30896"
   inkscape:export-ydpi="346.30896"
   inkscape:version="1.3.2 (091e20e, 2023-11-25)"
   xmlns:inkscape="http://www.inkscape.org/namespaces/inkscape"
   xmlns:sodipodi="http://sodipodi.sourceforge.net/DTD/sodipodi-0.dtd"
   xmlns:xlink="http://www.w3.org/1999/xlink"
   xmlns="http://www.w3.org/2000/svg"
   xmlns:svg="http://www.w3.org/2000/svg"
   xmlns:bx="https://boxy-svg.com"><sodipodi:namedview
     id="namedview21"
     pagecolor="#ffffff"
     bordercolor="#000000"
     borderopacity="0.25"
     inkscape:showpageshadow="2"
     inkscape:pageopacity="0.0"
     inkscape:pagecheckerboard="0"
     inkscape:deskcolor="#d1d1d1"
     inkscape:zoom="4.65625"
     inkscape:cx="73.557047"
     inkscape:cy="70.550336"
     inkscape:window-width="1392"
     inkscape:window-height="1212"
     inkscape:window-x="0"
     inkscape:window-y="25"
     inkscape:window-maximized="0"
     inkscape:current-layer="g19" /><defs
     id="defs4"><linearGradient
       id="linearGradient18"><title
         id="title14">vertix</title><stop
         offset="0"
         style="stop-color:#ffffff;stop-opacity:1;"
         id="stop15" /><stop
         offset="0.52138245"
         style="stop-color: rgb(41, 189, 251);"
         id="stop16" /><stop
         offset="0.72205383"
         style="stop-color: rgb(2, 143, 247);"
         id="stop17" /><stop
         offset="1"
         style="stop-color: rgb(33, 76, 158);"
         id="stop18" /></linearGradient><linearGradient
       id="linearGradient14"><title
         id="title9">vertix</title><stop
         offset="0"
         style="stop-color:#ffffff;stop-opacity:1;"
         id="stop11" /><stop
         offset="0.23770708"
         style="stop-color: rgb(41, 189, 251);"
         id="stop12" /><stop
         offset="0.67975694"
         style="stop-color: rgb(2, 143, 247);"
         id="stop13" /><stop
         offset="1"
         style="stop-color: rgb(33, 76, 158);"
         id="stop14" /></linearGradient><linearGradient
       id="vertix"><title
         id="title1">vertix</title><stop
         offset="0"
         style="stop-color: rgba(79, 231, 255, 0.98);"
         id="stop1" /><stop
         offset="0.295"
         style="stop-color: rgb(41, 189, 251);"
         id="stop2" /><stop
         offset="0.614"
         style="stop-color: rgb(2, 143, 247);"
         id="stop3" /><stop
         offset="1"
         style="stop-color: rgb(33, 76, 158);"
         id="stop4" /></linearGradient><linearGradient
       id="vertix-0"
       gradientUnits="userSpaceOnUse"
       x1="36.61"
       y1="45.771"
       x2="36.61"
       y2="48.966"
       xlink:href="#vertix" /><linearGradient
       id="vertix-1"
       gradientUnits="userSpaceOnUse"
       x1="52.79"
       y1="13.325"
       x2="52.79"
       y2="46.799"
       xlink:href="#vertix" /><linearGradient
       id="vertix-2"
       gradientUnits="userSpaceOnUse"
       x1="42.309"
       y1="35.433"
       x2="42.309"
       y2="45.742"
       xlink:href="#vertix" /><linearGradient
       id="vertix-3"
       gradientUnits="userSpaceOnUse"
       x1="52.792"
       y1="13.325"
       x2="52.792"
       y2="24.977"
       xlink:href="#vertix" /><linearGradient
       id="vertix-4"
       gradientUnits="userSpaceOnUse"
       x1="63.265"
       y1="35.413"
       x2="63.265"
       y2="45.699"
       xlink:href="#vertix" /><linearGradient
       id="vertix-5"
       gradientUnits="userSpaceOnUse"
       x1="52.79"
       y1="13.325"
       x2="52.79"
       y2="46.799"
       xlink:href="#vertix" /><linearGradient
       id="vertix-6"
       gradientUnits="userSpaceOnUse"
       x1="22.749"
       y1="6.466"
       x2="22.749"
       y2="46.801"
       xlink:href="#vertix" /><linearGradient
       id="vertix-7"
       gradientUnits="userSpaceOnUse"
       x1="9.98"
       y1="32.985"
       x2="9.98"
       y2="45.524"
       xlink:href="#vertix" /><linearGradient
       id="vertix-8"
       gradientUnits="userSpaceOnUse"
       x1="22.74"
       y1="6.466"
       x2="22.74"
       y2="20.301"
       xlink:href="#vertix" /><linearGradient
       id="vertix-9"
       gradientUnits="userSpaceOnUse"
       x1="35.52"
       y1="32.985"
       x2="35.52"
       y2="45.492"
       xlink:href="#vertix" /><linearGradient
       id="vertix-10"
       gradientUnits="userSpaceOnUse"
       x1="22.749"
       y1="6.466"
       x2="22.749"
       y2="46.801"
       gradientTransform="translate(-0.987994)"
       xlink:href="#vertix" /><radialGradient
       gradientUnits="userSpaceOnUse"
       cx="13.947"
       cy="59.074"
       r="21.194"
       id="gradient-1-3"
       gradientTransform="matrix(9.450373, -10.58197, 1.246667, 1.11004, -190.889427, 144.709779)"
       xlink:href="#vertix" /><radialGradient
       gradientUnits="userSpaceOnUse"
       cx="13.947"
       cy="59.074"
       r="21.194"
       id="vertix-11"
       gradientTransform="matrix(9.450373, -10.58197, 1.246667, 1.11004, -190.889427, 144.709779)"
       spreadMethod="repeat"
       xlink:href="#vertix" /><linearGradient
       id="linearGradient10"
       bx:pinned="true"><title
         id="title7-4">vertix</title><stop
         offset="0"
         style="stop-color: rgba(79, 231, 255, 0.98);"
         id="stop7" /><stop
         offset="0.0001"
         style="stop-color: rgb(41, 189, 251);"
         id="stop8" /><stop
         offset="1"
         style="stop-color: rgb(2, 143, 247);"
         id="stop9" /><stop
         offset="1"
         style="stop-color: rgb(33, 76, 158);"
         id="stop10" /></linearGradient><linearGradient
       id="vertix-3-6"
       gradientUnits="userSpaceOnUse"
       x1="51.535"
       y1="10.748"
       x2="51.535"
       y2="32.813"
       xlink:href="#vertix" /><linearGradient
       id="vertix-4-6"
       gradientUnits="userSpaceOnUse"
       x1="51.703999"
       y1="32.348999"
       x2="51.703999"
       y2="60.652"
       xlink:href="#vertix" /><linearGradient
       id="vertix-10-9"
       gradientUnits="userSpaceOnUse"
       x1="22.749001"
       y1="6.4660001"
       x2="22.749001"
       y2="46.800999"
       gradientTransform="matrix(0.04877375,0,0,0.07220733,19.274751,-10.898204)"
       xlink:href="#vertix" /><linearGradient
       id="vertix-1-4"
       gradientUnits="userSpaceOnUse"
       x1="66.57"
       y1="21.261"
       x2="66.57"
       y2="147.36099"
       gradientTransform="matrix(1.011287,0,0,1.012024,-148.96142,-95.889657)"
       xlink:href="#vertix" /><linearGradient
       id="vertix-2-1"
       gradientUnits="userSpaceOnUse"
       x1="28.416"
       y1="1.2309999"
       x2="28.416"
       y2="64.332001"
       gradientTransform="matrix(-0.764337,-0.461711,-0.532789,0.7204,96.324163,-18.505714)"
       xlink:href="#vertix" /><linearGradient
       id="vertix-5-3"
       gradientUnits="userSpaceOnUse"
       x1="28.416"
       y1="1.2309999"
       x2="40.813038"
       y2="57.032745"
       gradientTransform="matrix(1.304508,-0.107878,0.146777,0.876004,-1.726479,6.739271)"
       xlink:href="#linearGradient19" /><linearGradient
       id="linearGradient19"
       bx:pinned="true"><title
         id="title20">vertix</title><stop
         offset="0"
         style="stop-color: rgba(79, 231, 255, 0.98);"
         id="stop21" /><stop
         offset="0.0001"
         style="stop-color: rgb(41, 189, 251);"
         id="stop22" /><stop
         offset="0.60473353"
         style="stop-color: rgb(2, 143, 247);"
         id="stop23" /><stop
         offset="1"
         style="stop-color: rgb(33, 76, 158);"
         id="stop24" /></linearGradient><radialGradient
       gradientUnits="userSpaceOnUse"
       cx="13.947"
       cy="59.074001"
       r="21.194"
       id="gradient-1-3-3"
       gradientTransform="matrix(9.450373,-10.58197,1.246667,1.11004,-178.97504,162.88269)"
       xlink:href="#linearGradient11" /><linearGradient
       id="linearGradient11"
       bx:pinned="true"><title
         id="title8-2">vertix</title><stop
         offset="0.295"
         style="stop-color: rgb(41, 189, 251);"
         id="stop25" /><stop
         offset="0.614"
         style="stop-color: rgb(2, 143, 247);"
         id="stop26" /><stop
         offset="1"
         style="stop-color: rgb(33, 76, 158);"
         id="stop27" /></linearGradient><linearGradient
       inkscape:collect="always"
       xlink:href="#linearGradient10"
       id="linearGradient7"
       x1="1.5"
       y1="20"
       x2="38.049305"
       y2="20.128771"
       gradientUnits="userSpaceOnUse"
       gradientTransform="matrix(12.508655,0,0,12.508655,-617.87831,95.182088)" /><linearGradient
       inkscape:collect="always"
       xlink:href="#linearGradient10"
       id="linearGradient29"
       x1="-0.12671904"
       y1="27.320894"
       x2="73.965286"
       y2="27.320894"
       gradientUnits="userSpaceOnUse" /><linearGradient
       inkscape:collect="always"
       xlink:href="#linearGradient10"
       id="linearGradient30"
       gradientUnits="userSpaceOnUse"
       x1="-0.12671904"
       y1="27.320894"
       x2="73.965286"
       y2="27.320894" /><linearGradient
       inkscape:collect="always"
       xlink:href="#linearGradient10"
       id="linearGradient31"
       gradientUnits="userSpaceOnUse"
       x1="-0.12671904"
       y1="27.320894"
       x2="73.965286"
       y2="27.320894" /><linearGradient
       inkscape:collect="always"
       xlink:href="#linearGradient10"
       id="linearGradient32"
       gradientUnits="userSpaceOnUse"
       x1="-0.12671904"
       y1="27.320894"
       x2="73.965286"
       y2="27.320894" /><linearGradient
       inkscape:collect="always"
       xlink:href="#linearGradient10"
       id="linearGradient33"
       gradientUnits="userSpaceOnUse"
       x1="-0.12671904"
       y1="27.320894"
       x2="73.965286"
       y2="27.320894" /><linearGradient
       inkscape:collect="always"
       xlink:href="#linearGradient10"
       id="linearGradient34"
       gradientUnits="userSpaceOnUse"
       x1="-0.12671904"
       y1="27.320894"
       x2="73.965286"
       y2="27.320894" /><linearGradient
       inkscape:collect="always"
       xlink:href="#linearGradient10"
       id="linearGradient36"
       gradientUnits="userSpaceOnUse"
       x1="-0.12671904"
       y1="27.320894"
       x2="73.965286"
       y2="27.320894" /><linearGradient
       inkscape:collect="always"
       xlink:href="#linearGradient10"
       id="linearGradient37"
       gradientUnits="userSpaceOnUse"
       x1="-0.12671904"
       y1="27.320894"
       x2="73.965286"
       y2="27.320894" /><linearGradient
       inkscape:collect="always"
       xlink:href="#linearGradient10"
       id="linearGradient38"
       gradientUnits="userSpaceOnUse"
       x1="-0.12671904"
       y1="27.320894"
       x2="73.965286"
       y2="27.320894" /><linearGradient
       inkscape:collect="always"
       xlink:href="#linearGradient10"
       id="linearGradient39"
       gradientUnits="userSpaceOnUse"
       x1="-0.12671904"
       y1="27.320894"
       x2="73.965286"
       y2="27.320894" /><linearGradient
       inkscape:collect="always"
       xlink:href="#linearGradient10"
       id="linearGradient40"
       gradientUnits="userSpaceOnUse"
       x1="-0.12671904"
       y1="27.320894"
       x2="73.965286"
       y2="27.320894" /><linearGradient
       inkscape:collect="always"
       xlink:href="#linearGradient10"
       id="linearGradient42"
       gradientUnits="userSpaceOnUse"
       x1="-0.12671904"
       y1="27.320894"
       x2="73.965286"
       y2="27.320894" /><linearGradient
       inkscape:collect="always"
       xlink:href="#linearGradient18"
       id="linearGradient6"
       x1="-8.7528496"
       y1="25.929989"
       x2="41.122684"
       y2="26.70385"
       gradientUnits="userSpaceOnUse" /><linearGradient
       inkscape:collect="always"
       xlink:href="#linearGradient14"
       id="linearGradient8"
       x1="70.203773"
       y1="29.499191"
       x2="41.262379"
       y2="29.147436"
       gradientUnits="userSpaceOnUse" /></defs><g
     transform="matrix(1.822101,0,0,3.052761,0.4497114,-16.766137)"
     id="g19"
     style="fill:url(#linearGradient29);fill-opacity:1;stroke:#00e8fc;stroke-width:2.65340127;stroke-dasharray:none;stroke-opacity:0.98653847"><title
       id="title7"
       style="fill:url(#linearGradient29)">members</title><g
       transform="matrix(1,0,-0.004857,1,0.539353,0.148344)"
       id="g13"
       style="fill:url(#linearGradient36);fill-opacity:1;stroke:#8dd9ff;stroke-width:2.65340127;stroke-dasharray:none;stroke-opacity:0.98653847"><title
         id="title8"
         style="fill:url(#linearGradient29)">Member 2</title><path
         class="st0"
         d="m -0.436,47.369 c 0,0.209 0.959,0.418 2.818,0.611 1.863,0.194 4.592,0.369 8.031,0.519 3.44,0.15 7.526,0.266 12.019,0.346 4.498,0.08 9.312,0.121 14.178,0.121 4.866,0 9.684,-0.041 14.178,-0.121 4.497,-0.08 8.579,-0.198 12.018,-0.346 3.44,-0.146 6.173,-0.325 8.032,-0.519 1.863,-0.193 2.818,-0.402 2.818,-0.611 0,-0.21 -0.959,-0.419 -2.818,-0.612 -1.864,-0.193 -4.592,-0.369 -8.032,-0.519 -3.439,-0.146 -7.525,-0.265 -12.018,-0.346 -4.498,-0.08 -9.312,-0.121 -14.178,-0.121 -4.866,0 -9.685,0.041 -14.178,0.121 -4.497,0.081 -8.579,0.2 -12.019,0.346 -3.439,0.148 -6.168,0.326 -8.031,0.519 -1.859,0.193 -2.818,0.402 -2.818,0.612 z"
         style="opacity:0.15;fill:url(#linearGradient30);fill-opacity:1;stroke:#8dd9ff;stroke-width:2.65340127;stroke-dasharray:none;stroke-opacity:0.98653847"
         id="path8" /><path
         class="st1"
         d="m 62.815,36.674 -6.369,-1.261 v -1.44 c 2.416,-0.431 4.579,-1.268 6.236,-2.411 1.658,-1.143 2.737,-2.548 3.114,-4.051 h 0.296 c 0.364,0 0.728,-0.047 1.062,-0.136 0.334,-0.088 0.634,-0.22 0.882,-0.38 0.249,-0.161 0.437,-0.354 0.557,-0.563 0.12,-0.209 0.167,-0.429 0.137,-0.647 -0.06,-0.267 -0.231,-0.521 -0.501,-0.736 -0.27,-0.214 -0.63,-0.382 -1.041,-0.488 v -2.603 c 0,-1.134 -0.372,-2.256 -1.092,-3.303 -0.72,-1.048 -1.778,-2.001 -3.105,-2.8 -1.332,-0.803 -2.909,-1.438 -4.648,-1.872 -1.739,-0.433 -3.602,-0.658 -5.482,-0.658 -1.881,0 -3.744,0.225 -5.483,0.658 -1.739,0.434 -3.32,1.069 -4.647,1.872 -1.332,0.802 -2.386,1.752 -3.106,2.8 -0.719,1.047 -1.092,2.169 -1.092,3.303 v 2.575 c -0.557,0.145 -1.011,0.4 -1.289,0.725 -0.279,0.325 -0.356,0.697 -0.227,1.053 0.128,0.357 0.462,0.673 0.938,0.898 0.475,0.225 1.066,0.343 1.675,0.332 h 0.162 c 0.382,1.493 1.452,2.889 3.097,4.027 1.645,1.137 3.787,1.972 6.185,2.407 v 1.42 l -6.369,1.261 c -2.107,0.416 -3.941,1.223 -5.243,2.308 -1.302,1.081 -2,2.384 -1.996,3.721 v 4.114 h 34.648 v -4.093 c 0,-1.342 -0.711,-2.648 -2.022,-3.733 -1.311,-1.082 -3.157,-1.888 -5.277,-2.299 z"
         style="fill:url(#linearGradient31);fill-opacity:1;stroke:#8dd9ff;stroke-width:2.65340127;stroke-dasharray:none;stroke-opacity:0.98653847"
         id="path9" /><path
         class="st2"
         d="m 42.709,39.694 1.636,-0.315 c 1.384,-0.271 2.588,-0.799 3.444,-1.507 0.857,-0.709 1.319,-1.561 1.324,-2.439 l -6.37,1.262 c -2.107,0.416 -3.94,1.223 -5.242,2.307 -1.302,1.082 -2.001,2.385 -1.996,3.722 v 3.018 c -0.009,-1.336 0.681,-2.639 1.974,-3.725 1.294,-1.089 3.123,-1.899 5.23,-2.323 z"
         style="fill:url(#linearGradient32);fill-opacity:1;stroke:#8dd9ff;stroke-width:2.65340127;stroke-dasharray:none;stroke-opacity:0.98653847"
         id="path10" /><path
         class="st3"
         d="m 38.464,24.977 c 0,-1.133 0.373,-2.256 1.093,-3.303 0.719,-1.048 1.777,-2 3.105,-2.801 1.332,-0.802 2.908,-1.437 4.647,-1.87 1.739,-0.434 3.603,-0.658 5.483,-0.658 1.88,0 3.744,0.224 5.483,0.658 1.739,0.433 3.319,1.068 4.647,1.87 1.332,0.803 2.386,1.753 3.105,2.801 0.72,1.047 1.093,2.17 1.093,3.303 v -3.019 c 0,-1.134 -0.373,-2.256 -1.093,-3.303 -0.719,-1.048 -1.773,-2.001 -3.105,-2.8 -1.332,-0.803 -2.908,-1.438 -4.647,-1.872 -1.739,-0.433 -3.603,-0.658 -5.483,-0.658 -1.88,0 -3.744,0.225 -5.483,0.658 -1.739,0.434 -3.319,1.069 -4.647,1.872 -1.332,0.802 -2.386,1.752 -3.105,2.8 -0.72,1.047 -1.093,2.169 -1.093,3.303 z"
         style="fill:url(#linearGradient33);fill-opacity:1;stroke:#8dd9ff;stroke-width:2.65340127;stroke-dasharray:none;stroke-opacity:0.98653847"
         id="path11" /><path
         class="st3"
         d="m 62.815,36.674 -6.369,-1.261 c 0.004,0.875 0.467,1.729 1.323,2.438 0.857,0.709 2.061,1.237 3.444,1.508 l 1.636,0.314 c 2.108,0.418 3.941,1.226 5.239,2.308 1.298,1.08 2,2.384 1.996,3.718 V 42.7 c 0,-1.338 -0.703,-2.642 -2.009,-3.727 -1.307,-1.078 -3.148,-1.886 -5.26,-2.299 z"
         style="fill:url(#linearGradient34);fill-opacity:1;stroke:#8dd9ff;stroke-width:2.65340127;stroke-dasharray:none;stroke-opacity:0.98653847"
         id="path12" /><path
         class="st4"
         d="m 62.815,36.674 -6.369,-1.261 0,-1.44 c 2.416,-0.431 4.579,-1.268 6.236,-2.411 1.658,-1.143 2.737,-2.548 3.114,-4.051 h 0.296 c 0.364,0 0.728,-0.047 1.062,-0.136 0.334,-0.088 0.634,-0.22 0.882,-0.38 0.249,-0.161 0.437,-0.354 0.557,-0.563 0.12,-0.209 0.167,-0.429 0.137,-0.647 -0.06,-0.267 -0.231,-0.521 -0.501,-0.736 -0.27,-0.214 -0.63,-0.382 -1.041,-0.488 v -2.603 c 0,-1.134 -0.372,-2.256 -1.092,-3.303 -0.72,-1.048 -1.778,-2.001 -3.105,-2.8 -1.332,-0.803 -2.909,-1.438 -4.648,-1.872 -1.739,-0.433 -3.602,-0.658 -5.482,-0.658 -1.881,0 -3.744,0.225 -5.483,0.658 -1.739,0.434 -3.32,1.069 -4.647,1.872 -1.332,0.802 -2.386,1.752 -3.106,2.8 -0.719,1.047 -1.092,2.641688 -1.092,3.303 v 2.575 c -0.557,0.145 -1.011,0.4 -1.289,0.725 -0.279,0.325 -0.356,0.697 -0.227,1.053 0.128,0.357 0.462,0.673 0.938,0.898 0.475,0.225 1.066,0.343 1.675,0.332 h 0.162 c 0.382,1.493 1.452,2.889 3.097,4.027 1.645,1.137 3.787,1.972 6.185,2.407 v 1.42 l -6.369,1.261 c -2.107,0.416 -3.941,1.223 -5.243,2.308 -1.302,1.081 -2,2.384 -1.996,3.721 l 0,4.114 h 34.648 v -4.093 c 0,-1.342 -0.711,-2.648 -2.022,-3.733 -1.311,-1.082 -3.157,-1.888 -5.277,-2.299 z"
         style="fill:url(#linearGradient8);fill-opacity:1;fill-rule:nonzero;stroke:#8dd9ff;stroke-width:2.6534;stroke-linecap:round;stroke-linejoin:round;stroke-dasharray:none;stroke-opacity:0.986538"
         id="path13"
         sodipodi:nodetypes="cccccsccscccscccscccsccccccccccccccscc" /></g><g
       transform="matrix(1.024916,0,0,1,0.531006,0.17927)"
       id="g18"
       style="fill:url(#linearGradient42);fill-opacity:1;stroke:#8dd9ff;stroke-width:2.62095037;stroke-dasharray:none;stroke-opacity:0.98653847"><title
         id="title13"
         style="fill:url(#linearGradient29)">Member 1</title><path
         class="st3"
         d="m 34.978,34.505 -7.727,-1.52 v -1.737 c 2.938,-0.522 5.564,-1.533 7.577,-2.924 2.013,-1.389 3.324,-3.097 3.786,-4.918 h 0.197 c 0.442,-0.006 0.878,-0.068 1.281,-0.176 0.403,-0.112 0.763,-0.269 1.062,-0.465 0.3,-0.195 0.527,-0.426 0.673,-0.678 0.145,-0.251 0.205,-0.52 0.18,-0.783 -0.069,-0.325 -0.279,-0.631 -0.604,-0.892 -0.326,-0.261 -0.763,-0.468 -1.259,-0.596 v -3.184 c -0.146,-2.726 -2.039,-5.309 -5.286,-7.206 -3.247,-1.9 -7.594,-2.96 -12.117,-2.96 -4.524,0 -8.871,1.06 -12.118,2.96 -3.247,1.897 -5.14,4.482 -5.281,7.206 v 3.127 c -0.467,0.124 -0.878,0.317 -1.195,0.56 -0.317,0.242 -0.531,0.529 -0.621,0.831 -0.069,0.276 -0.043,0.56 0.085,0.83 0.125,0.272 0.347,0.523 0.643,0.736 0.295,0.214 0.672,0.39 1.088,0.512 0.42,0.121 0.878,0.187 1.34,0.193 h 0.197 c 0.446,1.832 1.752,3.548 3.766,4.946 2.013,1.399 4.651,2.421 7.598,2.946 v 1.677 l -7.744,1.52 c -2.57,0.507 -4.802,1.496 -6.382,2.818 -1.581,1.321 -2.425,2.911 -2.407,4.541 v 4.932 h 42.079 v -4.932 c 0.017,-1.63 -0.831,-3.223 -2.412,-4.544 -1.585,-1.329 -3.825,-2.315 -6.399,-2.82 z"
         style="fill:url(#linearGradient37);fill-opacity:1;stroke:#8dd9ff;stroke-width:2.62095037;stroke-dasharray:none;stroke-opacity:0.98653847"
         id="path14" /><path
         class="st2"
         d="m 10.499,38.174 1.949,-0.384 c 1.683,-0.333 3.148,-0.976 4.189,-1.838 1.041,-0.861 1.602,-1.902 1.61,-2.967 l -7.744,1.52 c -2.57,0.508 -4.801,1.496 -6.382,2.817 -1.58,1.322 -2.424,2.911 -2.407,4.542 v 3.66 c -0.013,-1.629 0.831,-3.217 2.411,-4.537 1.572,-1.319 3.808,-2.304 6.374,-2.813 z"
         style="fill:url(#linearGradient38);fill-opacity:1;stroke:#8dd9ff;stroke-width:2.62095037;stroke-dasharray:none;stroke-opacity:0.98653847"
         id="path15" /><path
         class="st2"
         d="m 5.342,20.301 c -0.073,-1.404 0.325,-2.803 1.169,-4.111 0.844,-1.309 2.112,-2.504 3.735,-3.512 1.624,-1.01 3.564,-1.809 5.71,-2.357 2.146,-0.546 4.454,-0.828 6.785,-0.828 2.33,0 4.638,0.282 6.784,0.828 2.146,0.548 4.087,1.35 5.71,2.357 1.623,1.008 2.891,2.201 3.735,3.512 0.844,1.308 1.238,2.707 1.169,4.111 v -3.669 c -0.141,-2.726 -2.034,-5.309 -5.281,-7.206 -3.247,-1.9 -7.594,-2.96 -12.117,-2.96 -4.524,0 -8.871,1.06 -12.118,2.96 -3.247,1.897 -5.14,4.482 -5.281,7.206 z"
         style="fill:url(#linearGradient39);fill-opacity:1;stroke:#8dd9ff;stroke-width:2.62095037;stroke-dasharray:none;stroke-opacity:0.98653847"
         id="path16" /><path
         class="st2"
         d="m 34.978,34.505 -7.727,-1.52 c 0,1.067 0.561,2.108 1.602,2.973 1.041,0.864 2.51,1.509 4.193,1.839 l 1.932,0.385 c 2.561,0.503 4.789,1.481 6.373,2.794 1.581,1.314 2.433,2.893 2.438,4.516 v -3.63 C 43.806,40.23 42.958,38.638 41.377,37.318 39.792,35.996 37.552,35.01 34.978,34.505 Z"
         style="fill:url(#linearGradient40);fill-opacity:1;stroke:#8dd9ff;stroke-width:2.62095037;stroke-dasharray:none;stroke-opacity:0.98653847"
         id="path17" /><path
         class="st4"
         d="m 33.991,34.505 -7.727,-1.52 v -1.737 c 2.938,-0.522 5.564,-1.533 7.577,-2.924 2.013,-1.389 3.324,-3.097 3.786,-4.918 h 0.197 c 0.442,-0.006 0.878,-0.068 1.281,-0.176 0.403,-0.112 0.763,-0.269 1.062,-0.465 0.3,-0.195 0.527,-0.426 0.673,-0.678 0.145,-0.251 0.205,-0.52 0.18,-0.783 -0.069,-0.325 -0.279,-0.631 -0.604,-0.892 -0.326,-0.261 -0.763,-0.468 -1.259,-0.596 v -3.184 c -0.146,-2.726 -2.039,-5.309 -5.286,-7.206 -3.247,-1.9 -7.594,-2.96 -12.117,-2.96 -4.524,0 -8.871,1.06 -12.118,2.96 -3.247,1.897 -5.14,4.482 -5.281,7.206 v 3.127 c -0.467,0.124 -0.878,0.317 -1.195,0.56 -0.317,0.242 -0.531,0.529 -0.621,0.831 -0.069,0.276 -0.043,0.56 0.085,0.83 0.125,0.272 0.347,0.523 0.643,0.736 0.295,0.214 0.672,0.39 1.088,0.512 0.42,0.121 0.878,0.187 1.34,0.193 h 0.197 c 0.446,1.832 1.752,3.548 3.766,4.946 2.013,1.399 4.651,2.421 7.598,2.946 V 32.99 L 9.512,34.51 C 6.942,35.017 4.71,36.006 3.13,37.328 1.549,38.649 0.705,40.239 0.723,41.869 v 4.932 h 42.079 v -4.932 c 0.017,-1.63 -0.831,-3.223 -2.412,-4.544 -1.585,-1.329 -3.825,-2.315 -6.399,-2.82 z"
         style="fill:url(#linearGradient6);fill-opacity:1;stroke:#8dd9ff;stroke-width:2.62095037;stroke-linecap:round;stroke-linejoin:round;stroke-dasharray:none;stroke-opacity:0.98653847"
         id="path18" /></g></g><path
     fill="#dff0fe"
     d="m -367.70523,576.76527 c -127.60078,0 -231.4101,-103.80931 -231.4101,-231.4101 0,-67.23402 29.39534,-131.06568 80.6558,-175.10865 l 5.11604,-4.39054 -51.91091,-51.91091 h 153.76888 v 153.76889 l -48.45852,-48.45853 -4.36552,3.42737 c -37.97628,29.89568 -59.75385,74.60161 -59.75385,122.67237 0,86.22215 70.13603,156.35818 156.35818,156.35818 86.22215,0 156.35818,-70.13603 156.35818,-156.35818 0,-64.4571 -40.02769,-122.44722 -100.06924,-145.6883 v -78.72946 c 101.92053,25.51765 175.12116,118.6696 175.12116,224.41776 0,127.60079 -103.80932,231.4101 -231.4101,231.4101 z"
     id="path1"
     style="fill:url(#linearGradient7);fill-opacity:1;stroke-width:12.5087" /><path
     fill="#4788c7"
     d="m -417.73985,120.19939 v 79.99285 52.42377 l -33.86092,-33.86093 -7.85544,-7.85543 -8.71853,6.86725 c -39.48982,31.08399 -62.14299,77.57867 -62.14299,127.58827 0,89.66203 72.95047,162.6125 162.6125,162.6125 89.66203,0 162.61249,-72.95047 162.61249,-162.6125 0,-65.59538 -39.85255,-124.74881 -100.06922,-149.91622 v -66.33339 c 95.1033,27.50653 162.6125,116.06779 162.6125,216.24961 0,124.14839 -101.00738,225.15577 -225.15577,225.15577 -124.14839,0 -225.15577,-101.00738 -225.15577,-225.15577 0,-65.42027 28.60729,-127.51322 78.47929,-170.35536 l 10.23208,-8.79358 -9.5441,-9.54411 -36.46273,-36.46273 h 132.41661 m 12.50865,-12.50865 h -175.12115 l 57.815,57.815 c -50.63503,43.5051 -82.83231,107.8121 -82.83231,179.84943 0,131.2533 106.41112,237.66443 237.66443,237.66443 131.25331,0 237.66443,-106.41113 237.66443,-237.66443 0,-114.07892 -80.41813,-209.2948 -187.6298,-232.28571 v 90.93792 c 58.20276,20.6768 100.06922,76.14019 100.06922,141.34779 0,82.76977 -67.33409,150.10386 -150.10385,150.10386 -82.76976,0 -150.10385,-67.33409 -150.10385,-150.10386 0,-47.77055 22.47805,-90.28746 57.36468,-117.75647 l 55.2132,55.2132 v -82.61966 -89.26176 z"
     id="path2"
     style="fill:#000000;fill-opacity:1;stroke:#05d7ff;stroke-width:12.509;stroke-dasharray:none;stroke-opacity:0.855769" /></svg>
