<?xml version="1.0" encoding="UTF-8" standalone="no"?>
<svg
   version="1.1"
   width="256"
   height="256"
   viewBox="0 0 256 256"
   xml:space="preserve"
   id="svg2"
   sodipodi:docname="v-dc-transfter.svg"
   inkscape:export-filename="v-dc-transfter.png"
   inkscape:export-xdpi="111.85285"
   inkscape:export-ydpi="111.85285"
   inkscape:version="1.3.2 (091e20e, 2023-11-25)"
   xmlns:inkscape="http://www.inkscape.org/namespaces/inkscape"
   xmlns:sodipodi="http://sodipodi.sourceforge.net/DTD/sodipodi-0.dtd"
   xmlns:xlink="http://www.w3.org/1999/xlink"
   xmlns="http://www.w3.org/2000/svg"
   xmlns:svg="http://www.w3.org/2000/svg"
   xmlns:bx="https://boxy-svg.com"><sodipodi:namedview
   id="namedview2"
   pagecolor="#ffffff"
   bordercolor="#000000"
   borderopacity="0.25"
   inkscape:showpageshadow="2"
   inkscape:pageopacity="0.0"
   inkscape:pagecheckerboard="0"
   inkscape:deskcolor="#d1d1d1"
   inkscape:zoom="5.6640625"
   inkscape:cx="127.91172"
   inkscape:cy="129.67724"
   inkscape:window-width="2000"
   inkscape:window-height="1288"
   inkscape:window-x="967"
   inkscape:window-y="382"
   inkscape:window-maximized="0"
   inkscape:current-layer="g2" />

<defs
   id="defs1"><linearGradient
   id="linearGradient18"
   bx:pinned="true"><title
     id="title14">vertix</title><stop
     offset="0"
     style="stop-color:#ffffff;stop-opacity:0;"
     id="stop15" /><stop
     offset="0.246"
     style="stop-color: rgb(41, 189, 251);"
     id="stop16" /><stop
     offset="0.614"
     style="stop-color: rgb(2, 143, 247);"
     id="stop17" /><stop
     offset="1"
     style="stop-color: rgb(33, 76, 158);"
     id="stop18" /></linearGradient><linearGradient
   id="linearGradient14"
   bx:pinned="true"><title
     id="title11">vertix</title><stop
     offset="0"
     style="stop-color:#ffffff;stop-opacity:1;"
     id="stop11" /><stop
     offset="0.246"
     style="stop-color: rgb(41, 189, 251);"
     id="stop12" /><stop
     offset="0.614"
     style="stop-color: rgb(2, 143, 247);"
     id="stop13" /><stop
     offset="1"
     style="stop-color: rgb(33, 76, 158);"
     id="stop14" /></linearGradient>
<radialGradient
   gradientUnits="userSpaceOnUse"
   cx="13.947"
   cy="59.074"
   r="21.194"
   id="gradient-1-3"
   gradientTransform="matrix(9.450373, -10.58197, 1.246667, 1.11004, -190.889427, 144.709779)"
   xlink:href="#gradient-1" /><linearGradient
   id="gradient-1"
   bx:pinned="true"><title
     id="title1">vertix</title><stop
     offset="0"
     style="stop-color: rgba(79, 231, 255, 0.98);"
     id="stop1" /><stop
     offset="0.246"
     style="stop-color: rgb(41, 189, 251);"
     id="stop2" /><stop
     offset="0.614"
     style="stop-color: rgb(2, 143, 247);"
     id="stop3" /><stop
     offset="1"
     style="stop-color: rgb(33, 76, 158);"
     id="stop4-1" /></linearGradient><linearGradient
   id="gradient-1-2"
   gradientUnits="userSpaceOnUse"
   x1="90.872"
   y1="37.711"
   x2="90.872"
   y2="96.822"
   gradientTransform="matrix(1, 0, 0, 0.913635, 0, 8.361995)"
   xlink:href="#gradient-1" /><radialGradient
   gradientUnits="userSpaceOnUse"
   cx="13.947"
   cy="59.074"
   r="21.194"
   id="gradient-1-1"
   gradientTransform="matrix(-1.419606, -5.525405, 1.61795, -0.414451, -61.219033, 164.243639)"
   xlink:href="#gradient-1" /><radialGradient
   gradientUnits="userSpaceOnUse"
   cx="13.947"
   cy="59.074"
   r="21.194"
   id="gradient-1-4"
   gradientTransform="matrix(6.37945, -5.028625, 0.935273, 1.211067, -129.663996, 61.289202)"
   xlink:href="#gradient-1" /><radialGradient
   gradientUnits="userSpaceOnUse"
   cx="13.947"
   cy="59.074"
   r="21.194"
   id="gradient-1-5"
   gradientTransform="matrix(9.450373, -10.58197, 1.246667, 1.11004, -190.889427, 144.709779)"
   xlink:href="#gradient-1" /><radialGradient
   gradientUnits="userSpaceOnUse"
   cx="13.947"
   cy="59.074"
   r="21.194"
   id="gradient-1-6"
   gradientTransform="matrix(9.450373, -10.58197, 1.246667, 1.11004, -190.889427, 144.709779)"
   xlink:href="#gradient-1" /><radialGradient
   gradientUnits="userSpaceOnUse"
   cx="13.947"
   cy="59.074"
   r="21.194"
   id="gradient-1-7"
   gradientTransform="matrix(9.450373, -10.58197, 1.246667, 1.11004, -190.889427, 144.709779)"
   xlink:href="#gradient-1" /><linearGradient
   inkscape:collect="always"
   xlink:href="#linearGradient18"
   id="linearGradient19"
   gradientUnits="userSpaceOnUse"
   gradientTransform="matrix(-1.1204414,0,0,-1.586,101.94361,120.39415)"
   x1="133.69296"
   y1="54.723438"
   x2="19.7936"
   y2="55.396835" /><linearGradient
   inkscape:collect="always"
   xlink:href="#linearGradient18"
   id="linearGradient23"
   gradientUnits="userSpaceOnUse"
   gradientTransform="matrix(1.0883911,0,0,-1.3357478,-8.237465,133.76791)"
   x1="133.69296"
   y1="54.723438"
   x2="19.7936"
   y2="55.396835" /></defs>
<g
   style="stroke: none; stroke-width: 0; stroke-dasharray: none; stroke-linecap: butt; stroke-linejoin: miter; stroke-miterlimit: 10; fill: none; fill-rule: nonzero; opacity: 1;"
   transform="translate(1.4065934065934016 1.4065934065934016) scale(2.81 2.81)"
   id="g2">
	<path
   d="m 24.486368,0.75742832 c 0.698035,0 1.402794,0.1919061 2.077299,0.58681958 2.03136,1.1895003 3.343396,3.9697601 3.343396,7.0799041 v 5.533556 H 80.91817 c 1.856572,0 3.361326,2.129999 3.361326,4.758001 0,2.628002 -1.504754,4.757999 -3.361326,4.757999 H 28.596146 c -2.984855,0 -5.412851,-3.438448 -5.412851,-7.663551 V 12.896674 L 8.3665783,33.869939 23.183295,54.841616 v -2.913482 c 0,-4.225103 2.427996,-7.663551 5.412851,-7.663551 l 1.309797,15.049553 c 0,3.111733 -1.312038,5.890405 -3.343397,7.081491 -2.032482,1.1895 -4.346192,0.537653 -5.900243,-1.663713 L 2.6859404,39.286128 c -2.11091251,-2.988024 -2.11091251,-7.847528 0,-10.835552 L 20.664542,3.0047915 c 1.036408,-1.470223 2.415673,-2.24736318 3.821826,-2.24736318 z"
   style="fill:url(#linearGradient19);fill-rule:nonzero;stroke:#05d7ff;stroke-width:3.81594;stroke-linecap:butt;stroke-linejoin:miter;stroke-miterlimit:10;stroke-dasharray:none;stroke-opacity:0.855769"
   stroke-linecap="round"
   id="path1-3"
   sodipodi:nodetypes="scscssssscccsccccsccs" /><path
   d="m 67.004099,33.008458 c -0.678068,0 -1.362674,0.161627 -2.017876,0.494227 -1.973254,1.001811 -3.247767,3.343379 -3.247767,5.962777 v 4.660427 H 29.615689 c -1.803472,0 -3.265177,1.793909 -3.265177,4.007243 0,2.213335 1.461705,4.007242 3.265177,4.007242 h 33.396185 c 2.899473,0 5.25802,-2.8959 5.25802,-6.454331 v -2.453769 l 14.392885,17.663927 -14.392885,17.66259 v -2.453768 c 0,-3.55843 -4.952651,-4.713655 -7.852102,-4.724944 L 4.8972624,71.163906 c -1.8034582,-0.007 -3.265177,1.793909 -3.265177,4.007245 0,2.213333 1.4617193,4.000055 3.265177,4.007242 l 54.2482076,0.216173 2.594082,2.931035 c 1.736899,1.962511 1.274501,4.960968 3.247755,5.964114 1.974349,1.001812 4.221871,0.452818 5.731461,-1.401198 L 88.180921,65.457779 c 2.050529,-2.516549 2.050529,-6.60928 0,-9.125829 L 70.716601,34.901214 c -1.006758,-1.238239 -2.346579,-1.892756 -3.712502,-1.892756 z"
   style="fill:url(#linearGradient23);fill-rule:nonzero;stroke:#05d7ff;stroke-width:3.45151;stroke-linecap:butt;stroke-linejoin:miter;stroke-miterlimit:10;stroke-dasharray:none;stroke-opacity:0.855769"
   stroke-linecap="round"
   id="path1-3-4"
   sodipodi:nodetypes="scscssssscccssssscsccsccs" />
	
</g>
</svg>
